<svg width="73" height="63" viewBox="0 0 73 63" fill="none" xmlns="http://www.w3.org/2000/svg">
<path fill-rule="evenodd" clip-rule="evenodd" d="M17.5499 54.4004C22.1099 56.2204 60.0999 49.2704 63.4599 46.2004C66.8199 43.1304 65.8099 35.3004 57.1499 36.8504C57.1499 21.0504 49.3999 6.17039 32.9299 8.70039C16.4599 11.2304 17.3899 32.0004 20.9999 43.0004C11.9999 44.5204 13.2799 52.7004 17.5499 54.4004Z" stroke="#464646" stroke-width="2.5"/>
<path d="M26.92 10.9102C26.92 10.9102 25.35 2.61019 32.24 1.38019C39.3 0.12019 40.46 8.49019 40.46 8.49019" stroke="#464646" stroke-width="2.5"/>
<path d="M51.8899 50.1797C51.8899 50.1797 53.7899 59.2797 43.9999 60.9997C34.2099 62.7197 32.8999 53.5497 32.8999 53.5497" stroke="#464646" stroke-width="2.5"/>
<path d="M16.5599 9.26953C16.5599 9.26953 4.06993 16.2695 9.55993 35.7795" stroke="#464646" stroke-width="2.5" stroke-linecap="round"/>
<path d="M8.31999 10.8604C8.31999 10.8604 -2.21001 16.7704 2.42999 33.2004" stroke="#464646" stroke-width="2.5" stroke-linecap="round"/>
<path d="M58.2 2C58.2 2 70.11 3.93 71.45 21" stroke="#464646" stroke-width="2.5" stroke-linecap="round"/>
<path d="M49.8501 3.40039C49.8501 3.40039 64.0001 5.65039 65.5801 25.8504" stroke="#464646" stroke-width="2.5" stroke-linecap="round"/>
</svg>
