<svg width="71" height="61" viewBox="0 0 71 61" fill="none" xmlns="http://www.w3.org/2000/svg">
<path fill-rule="evenodd" clip-rule="evenodd" d="M40.8393 4.43001C51.6093 -3.34999 67.1693 2.80001 69.6293 15.86C70.9445 21.9531 68.9934 28.2914 64.4793 32.59C55.246 41.8433 46.0027 51.0867 36.7493 60.32C36.4714 60.739 36.0021 60.9909 35.4993 60.9909C34.9966 60.9909 34.5272 60.739 34.2493 60.32C24.996 51.12 15.7693 41.89 6.56933 32.63C2.12465 28.3056 0.154246 22.0349 1.32662 15.9454C2.49898 9.85595 6.65675 4.7651 12.3893 2.40001C14.3001 1.61087 16.3266 1.13803 18.3893 1.00001C24.5093 1.08001 28.8493 2.83001 32.4593 6.34001C32.5394 6.41826 32.6195 6.49651 32.6997 6.5748C33.5108 7.36692 34.3258 8.16276 35.0993 9.00001C35.4393 9.38001 35.6093 9.31001 35.9293 9.00001C37.451 7.35762 39.0921 5.83011 40.8393 4.43001ZM35.9393 56.6C44.646 47.92 53.3327 39.22 61.9993 30.5C65.6954 27.0045 67.299 21.8334 66.2293 16.86C65.3815 11.3759 61.4741 6.85876 56.1693 5.23001C50.4593 3.30001 45.2293 4.50001 40.7693 8.57001C39.9148 9.34052 39.1044 10.1699 38.2969 10.9963C37.9516 11.3497 37.6068 11.7025 37.2593 12.05C37.2279 12.0814 37.1935 12.1114 37.1589 12.1413C37.0396 12.2449 36.9193 12.3494 36.9193 12.52C36.9544 13.0773 36.9305 13.6371 36.9066 14.1963C36.8623 15.2325 36.8181 16.2668 37.1493 17.28L37.1494 17.2803C37.9094 19.6502 38.6694 22.0201 39.5093 24.37C39.8496 25.1429 39.6233 26.0482 38.9593 26.57C38.3402 27.1651 37.7326 27.7764 37.1244 28.3883C36.4653 29.0513 35.8054 29.7151 35.1293 30.36C34.7393 30.72 34.7893 30.9 35.1293 31.23C36.0722 32.1514 37.0048 33.0881 37.9381 34.0256C38.3115 34.4006 38.685 34.7757 39.0593 35.15C39.3958 35.3809 39.622 35.7405 39.6845 36.1437C39.7469 36.547 39.6402 36.9581 39.3893 37.28C38.7676 38.5309 38.1403 39.7762 37.5116 41.0243C37.3009 41.4424 37.0901 41.8609 36.8793 42.28C36.7524 42.6666 36.469 42.982 36.0981 43.1494C35.7273 43.3168 35.3032 43.3206 34.9293 43.16C34.5501 42.9786 34.2708 42.6384 34.1665 42.2311C34.0623 41.8239 34.1439 41.3913 34.3893 41.05C34.5368 40.7527 34.6838 40.4549 34.8308 40.1569C35.3218 39.1619 35.8137 38.165 36.3293 37.18C36.4461 37.029 36.4961 36.8368 36.4678 36.648C36.4395 36.4592 36.3353 36.2901 36.1793 36.18C34.7693 34.81 33.3793 33.41 31.9893 32.01C31.0993 31.11 31.0993 30.47 31.9893 29.58C32.2458 29.3217 32.5019 29.0631 32.758 28.8046C33.9099 27.6415 35.0612 26.479 36.2393 25.35C36.5942 25.0759 36.6998 24.5859 36.4893 24.19C36.2554 23.5217 36.039 22.8482 35.8225 22.1745C35.5206 21.2353 35.2187 20.2959 34.8693 19.37C34.2854 18.044 34.0347 16.5952 34.1393 15.15V12.9C34.1675 12.5767 34.037 12.2598 33.7893 12.05C33.3033 11.5722 32.824 11.0893 32.3453 10.6069C31.6617 9.91817 30.9792 9.23044 30.2793 8.56001C24.2208 2.6837 14.5456 2.83145 8.66933 8.89001C2.79303 14.9486 2.94077 24.6237 8.99933 30.5C14.478 36.0421 19.9928 41.544 25.5057 47.0439C28.6967 50.2275 31.887 53.4104 35.0693 56.6C35.4193 56.95 35.5993 56.94 35.9393 56.6Z" fill="#464646"/>
<path fill-rule="evenodd" clip-rule="evenodd" d="M56.1699 5.23001C50.4599 3.30001 45.2299 4.50001 40.7399 8.57001C39.5199 9.67001 38.3899 10.89 37.2299 12.05C37.0899 12.19 36.8799 12.3 36.8899 12.52C36.9899 14.11 36.6099 15.72 37.1199 17.28C37.8799 19.65 38.6399 22.02 39.4799 24.37C39.8202 25.1429 39.5939 26.0482 38.9299 26.57C37.6399 27.81 36.3999 29.12 35.0999 30.36C34.7299 30.72 34.7799 30.9 35.0999 31.23C36.4199 32.52 37.7199 33.84 39.0299 35.15C39.3664 35.3809 39.5926 35.7405 39.655 36.1437C39.7175 36.547 39.6107 36.9581 39.3599 37.28C38.5299 38.96 37.6899 40.62 36.8499 42.28C36.723 42.6666 36.4395 42.982 36.0687 43.1494C35.6978 43.3167 35.2737 43.3206 34.8999 43.16C34.5207 42.9786 34.2413 42.6384 34.1371 42.2311C34.0329 41.8238 34.1145 41.3913 34.3599 41.05C34.9999 39.76 35.6299 38.46 36.2999 37.18C36.4167 37.029 36.4667 36.8368 36.4384 36.648C36.4101 36.4592 36.3059 36.2901 36.1499 36.18C34.7599 34.81 33.3699 33.41 31.9999 32C31.1099 31.1 31.1099 30.46 31.9999 29.57C33.4099 28.15 34.8099 26.72 36.2499 25.34C36.6048 25.0659 36.7104 24.5759 36.4999 24.18C35.9399 22.58 35.4999 20.95 34.8799 19.36C34.2959 18.034 34.0453 16.5852 34.1499 15.14C34.1499 14.14 34.1499 13.54 34.1499 12.89C34.1781 12.5667 34.0476 12.2498 33.7999 12.04C32.6199 10.88 31.4799 9.69001 30.2899 8.55001C24.2286 2.67093 14.549 2.81868 8.66991 8.88001C2.79084 14.9413 2.93858 24.6209 8.99991 30.5C17.6399 39.25 26.3799 47.9 35.0599 56.6C35.4099 56.95 35.5899 56.94 35.9299 56.6C44.6432 47.9 53.3332 39.2 61.9999 30.5C65.6923 27.0024 67.2921 21.8317 66.2199 16.86C65.3738 11.3785 61.4708 6.86195 56.1699 5.23001Z" fill="#FEFEFE"/>
</svg>
