<svg width="69" height="63" viewBox="0 0 69 63" fill="none" xmlns="http://www.w3.org/2000/svg">
  <path fill-rule="evenodd" clip-rule="evenodd" d="M3.25 61.2298C2.14543 61.2298 1.25 60.3344 1.25 59.2298V25.9998C1.33443 24.7943 1.95927 23.6917 2.95 22.9998L11.64 17.6698C12.58 17.0998 13.35 17.5298 13.35 18.6698V29.3798C13.4189 30.6134 14.0212 31.7559 15 32.5098L32.46 44.3398C33.4851 44.9589 34.7633 44.9818 35.81 44.3998L54.13 32.8398C55.1314 32.1259 55.7563 30.9974 55.83 29.7698V19.7698C55.83 18.6698 56.58 18.2598 57.51 18.8498L65.3 23.8498C66.2903 24.5601 66.9133 25.6742 67 26.8898V58.5198C67 59.6244 66.1046 60.5198 65 60.5198L3.25 61.2298Z" stroke="#464646" stroke-width="2.5" stroke-linecap="round" stroke-linejoin="round"/>
  <path d="M2.76001 24.9199L34.12 45.4599L65.21 26.0599" stroke="#464646" stroke-width="2.5" stroke-linecap="round" stroke-linejoin="round"/>
  <path d="M2.76001 59.5L26.49 40.46" stroke="#464646" stroke-width="2.5" stroke-linecap="round" stroke-linejoin="round"/>
  <path d="M65.99 59.5L42.26 40.46" stroke="#464646" stroke-width="2.5" stroke-linecap="round" stroke-linejoin="round"/>
  <path fill-rule="evenodd" clip-rule="evenodd" d="M13.3501 31.38V1.25H55.8301V31.77L34.1801 45.18L13.3501 31.38V31.38Z" stroke="#464646" stroke-width="2.5" stroke-linecap="round" stroke-linejoin="round"/>
  <path d="M25.8999 11.48H43.2699" stroke="#464646" stroke-width="2.5" stroke-linecap="round" stroke-linejoin="round"/>
  <path d="M25.8999 20.3599H43.2699" stroke="#464646" stroke-width="2.5" stroke-linecap="round" stroke-linejoin="round"/>
  <path d="M25.8999 29.2002H43.2699" stroke="#464646" stroke-width="2.5" stroke-linecap="round" stroke-linejoin="round"/>
</svg>
