<svg width="30" height="20" viewBox="0 0 30 20" fill="none" xmlns="http://www.w3.org/2000/svg">
<path fill-rule="evenodd" clip-rule="evenodd" d="M13.9725 8.18332C14.2612 8.40086 14.5358 8.63652 14.7947 8.88888C14.9149 8.98809 14.9845 9.1358 14.9845 9.29166C14.9845 9.44752 14.9149 9.59523 14.7947 9.69444C14.5447 9.91666 14.278 9.89444 14.0002 9.59999C13.769 9.33627 13.4442 9.17289 13.0947 9.14444C12.8493 9.10508 12.6048 9.21962 12.478 9.43332C12.3249 9.6514 12.3483 9.94744 12.5336 10.1389C12.682 10.2982 12.85 10.4382 13.0336 10.5555C13.4002 10.8055 13.778 11.0278 14.1447 11.2833C14.6636 11.6018 14.933 12.2068 14.8225 12.8055C14.7592 13.485 14.2882 14.0573 13.6336 14.25C13.3791 14.2763 13.1919 14.5005 13.2113 14.7555C13.2113 15.2055 12.9447 15.4222 12.5669 15.3889C12.1891 15.3555 11.9613 15.1278 12.0113 14.6722C12.0391 14.3555 11.9169 14.2333 11.6613 14.0778C11.3556 13.8792 11.0884 13.627 10.8725 13.3333C10.7789 13.2275 10.7383 13.085 10.762 12.9457C10.7858 12.8065 10.8713 12.6855 10.9947 12.6167C11.103 12.5181 11.2502 12.4739 11.3949 12.4966C11.5396 12.5193 11.6662 12.6063 11.7391 12.7333C12.0185 13.1366 12.4884 13.3642 12.978 13.3333C13.2185 13.3191 13.4319 13.174 13.5336 12.9555C13.6452 12.7309 13.6053 12.4606 13.4336 12.2778C13.2922 12.125 13.1337 11.9889 12.9613 11.8722C12.6002 11.6222 12.2169 11.3944 11.8502 11.1389C11.4056 10.8068 11.1601 10.2716 11.1983 9.71796C11.2364 9.16431 11.5531 8.66794 12.0391 8.39999C12.0967 8.36912 12.1585 8.34666 12.2225 8.33332C12.5564 8.28746 12.7986 7.992 12.778 7.65555C12.8058 7.27221 13.0058 7.17777 13.4613 7.22777C13.6069 7.21939 13.7485 7.27717 13.8466 7.385C13.9447 7.49283 13.9889 7.6392 13.9669 7.78332C14.0058 7.93888 13.978 8.09444 13.9725 8.18332Z" fill="#6DB6FB" stroke="#6DB6FB"/>
<path fill-rule="evenodd" clip-rule="evenodd" d="M17.5557 0.977778C21.2594 1.3 24.9631 1.61667 28.6668 1.92778C28.8847 1.91796 29.0949 2.00951 29.2362 2.17577C29.3775 2.34202 29.4339 2.56428 29.389 2.77778C28.9668 7.51667 28.6557 11.2111 28.2445 15.9444C28.2405 16.0593 28.2219 16.1732 28.189 16.2833C28.0841 16.5498 27.8028 16.7022 27.5223 16.6444C26.839 16.6444 26.5057 16.2722 26.5168 15.9722C26.5168 15.9 26.5168 15.8278 26.5168 15.7556C26.9279 11.2667 27.2223 8.33333 27.6223 3.8C27.6223 3.57778 27.6223 3.52222 27.3723 3.50556L6.38343 1.69444C6.24108 1.69287 6.10009 1.66655 5.96676 1.61667C5.76368 1.51631 5.61099 1.33662 5.54474 1.11999C5.47849 0.903365 5.50455 0.669004 5.61676 0.472222C5.68067 0.211435 5.90465 0.0210532 6.17232 0H6.43899L17.5557 0.977778Z" fill="#6DB6FB"/>
<path fill-rule="evenodd" clip-rule="evenodd" d="M13.6444 3.82224L24.7555 4.7778C25.3722 4.83335 25.5555 5.03891 25.4666 5.65557L24.3555 18.7667C24.3 19.3667 24.0889 19.55 23.4944 19.5L1.2722 17.5834C0.677752 17.5278 0.499974 17.3167 0.55553 16.7167C0.972196 11.9889 1.28886 8.33335 1.6722 3.5778C1.7222 2.9778 1.92775 2.81113 2.53331 2.86113L13.6444 3.82224ZM23.4444 6.53891C23.45 6.44446 23.4444 6.38335 23.3333 6.38335L21.8833 6.26113C21.8275 7.03486 22.3906 7.71545 23.1611 7.80557C23.2778 7.83335 23.3055 7.78891 23.3055 7.69446C23.334 7.34967 23.3538 7.23142 23.3745 7.10732C23.3941 6.98947 23.4147 6.86634 23.4444 6.53891ZM3.64997 4.58891C4.01929 4.62016 4.19975 4.65141 4.3845 4.6834C4.56105 4.71397 4.74151 4.74522 5.09442 4.7778C4.86109 5.83335 4.3222 6.16669 3.33331 6.14446C3.36386 5.78613 3.39442 5.60697 3.42497 5.4278L3.42497 5.4278L3.42497 5.42779C3.45553 5.24863 3.48609 5.06946 3.51664 4.71113C3.51109 4.61113 3.54442 4.5778 3.64997 4.58891ZM3.62267 16.2687L3.62275 16.2687C3.72559 16.2807 3.85443 16.2958 4.10553 16.3222C4.29997 16.3445 4.33886 16.2834 4.29442 16.1111C4.21376 15.369 3.66416 14.7633 2.93331 14.6111C2.90625 14.9156 2.89109 15.0928 2.87816 15.2438L2.87816 15.2438L2.87816 15.2439C2.85925 15.4649 2.84513 15.6299 2.80553 16.0556C2.78886 16.2056 2.89997 16.2056 2.99442 16.2056C3.36986 16.2391 3.46617 16.2504 3.62264 16.2687L3.62267 16.2687ZM21.8383 17.6648C21.8208 17.663 21.8074 17.6617 21.794 17.6605C21.7516 17.6566 21.7091 17.6541 21.5318 17.6435C21.4851 17.6407 21.429 17.6374 21.3611 17.6334C21.1765 17.6334 21.1954 17.5576 21.2256 17.4367L21.2333 17.4056C21.3383 16.7388 21.8741 16.2234 22.5444 16.1445C22.5294 16.3135 22.5178 16.4422 22.5082 16.5482L22.5082 16.5483C22.4752 16.9126 22.4665 17.0091 22.4278 17.5556C22.4222 17.7167 22.3444 17.7111 22.2222 17.7C21.9811 17.6792 21.8909 17.6701 21.8383 17.6648ZM19.2 17.2222C19.6126 15.7547 20.8783 14.6871 22.3944 14.5278H22.4C22.5611 14.5056 22.6055 14.4445 22.6333 14.2945C22.7726 12.5977 22.8496 11.7244 22.9888 10.1456C22.9995 10.0237 23.0107 9.89767 23.0222 9.76669C23.0389 9.61113 23 9.55002 22.8389 9.50557C21.3714 9.08209 20.309 7.80857 20.1555 6.28891C20.1333 6.08891 20.0444 6.08891 19.9055 6.08891L13.5333 5.53335L7.18886 4.9778C6.99997 4.96113 6.93331 5.00557 6.87775 5.18891C6.44809 6.63557 5.18973 7.68128 3.68886 7.83891C3.5222 7.85557 3.4722 7.92224 3.4722 8.07224C3.4415 8.43178 3.41406 8.75412 3.38853 9.0539C3.28468 10.2735 3.21263 11.1196 3.08331 12.5778C3.06664 12.7389 3.09442 12.8056 3.26109 12.8611C4.73741 13.2704 5.80879 14.5473 5.95553 16.0722C5.9722 16.2222 6.02775 16.2778 6.1722 16.2778L18.95 17.3889C19.1 17.4056 19.1555 17.3611 19.2 17.2222Z" fill="#6DB6FB"/>
</svg>
