<svg width="38" height="28" viewBox="0 0 38 28" fill="none" xmlns="http://www.w3.org/2000/svg">
<path fill-rule="evenodd" clip-rule="evenodd" d="M37.2 4.1887V23.9887C36.0882 26.6005 35.1176 27.2358 32.1882 27.2358H4.35882C3.94447 27.2444 3.53037 27.2089 3.12353 27.1299C1.58028 26.7433 0.377877 25.5341 0 23.9887V4.01223C0.510155 1.79647 2.66694 0.368959 4.90588 0.76517H32.7176C33.1613 0.755885 33.6047 0.791358 34.0412 0.871053C35.66 1.25071 36.9002 2.55323 37.2 4.1887ZM31.4118 4.29458H5.67662C5.45682 4.07102 5.23526 3.84749 5.01176 3.62399C4.85348 3.4789 5.4741 4.10285 5.66499 4.29458H5.66471L5.71926 4.34911L5.69216 4.32186L5.66499 4.29458H5.67662C7.92178 6.57817 9.98331 8.86529 12.0447 11.1523L12.0447 11.1523L12.0448 11.1523L12.0448 11.1523C14.1636 13.503 16.2824 15.8536 18.6003 18.2001L18.5471 18.2534C17.6824 19.1181 19.5176 19.1181 18.6529 18.2534L18.6003 18.2001C21.0855 15.7115 23.3328 13.2182 25.58 10.7251C27.7149 8.3566 29.8497 5.98822 32.1882 3.62399L31.4118 4.29458ZM23.3514 18.2852C23.827 17.7915 24.2997 17.3007 24.7941 16.8063C26.264 18.2762 26.928 19.1631 27.5826 20.0375C28.2561 20.9371 28.9198 21.8235 30.4412 23.3181C25.3281 23.3181 21.9445 23.3447 18.5697 23.3713H18.5695H18.5692C15.2119 23.3977 11.8633 23.424 6.82941 23.424C8.259 22.0032 8.89091 21.1577 9.53319 20.2984C10.1832 19.4287 10.8439 18.5448 12.3529 17.0358C12.8398 17.5313 13.4507 18.0439 14.0847 18.5758L14.0847 18.5758C14.7376 19.1236 15.4149 19.6919 16.0059 20.2828C18.1941 22.4711 19.3765 22.3122 21.5647 20.1063C22.1934 19.4873 22.7745 18.8841 23.3514 18.2852L23.3514 18.2852ZM3.61765 6.35929V22.8593C5.22517 21.2174 6.21294 19.99 7.18884 18.7774L7.18885 18.7774C8.21631 17.5008 9.23061 16.2404 10.9412 14.5299C9.32901 12.9177 8.36393 11.744 7.39147 10.5614C6.38402 9.33615 5.36864 8.10131 3.61765 6.35929ZM30.0772 18.9604C29.1161 17.7583 28.1631 16.5663 26.4706 14.8828C28.0291 13.265 28.9046 12.1717 29.7664 11.0954C30.7002 9.92935 31.6178 8.78337 33.3706 7.01223C33.3706 10.3853 33.4108 12.7269 33.4507 15.0546C33.4902 17.3545 33.5294 19.6407 33.5294 22.8946C31.9302 21.278 31 20.1146 30.0772 18.9604Z" fill="#B0D6FA"/>
</svg>
