<svg width="39" height="30" viewBox="0 0 39 30" fill="none" xmlns="http://www.w3.org/2000/svg">
<path fill-rule="evenodd" clip-rule="evenodd" d="M37.2 5.1887V24.9887C36.0882 27.6005 35.1176 28.2358 32.1882 28.2358H4.35882C3.94447 28.2444 3.53037 28.2089 3.12353 28.1299C1.58028 27.7433 0.377877 26.5341 0 24.9887V5.01223C0.510155 2.79647 2.66694 1.36896 4.90588 1.76517H32.7176C33.1613 1.75588 33.6047 1.79136 34.0412 1.87105C35.66 2.25071 36.9002 3.55323 37.2 5.1887ZM31.4118 5.29458H5.67662C5.45682 5.07102 5.23526 4.84749 5.01176 4.62399C4.85348 4.4789 5.4741 5.10285 5.66499 5.29458H5.66471L5.71926 5.34911L5.69216 5.32186L5.66499 5.29458H5.67662C7.92178 7.57817 9.98331 9.86529 12.0447 12.1523L12.0447 12.1523L12.0448 12.1523L12.0448 12.1523C14.1636 14.503 16.2824 16.8536 18.6003 19.2001L18.5471 19.2534C17.6824 20.1181 19.5176 20.1181 18.6529 19.2534L18.6003 19.2001C21.0855 16.7115 23.3328 14.2182 25.58 11.7251C27.7149 9.3566 29.8497 6.98822 32.1882 4.62399L31.4118 5.29458ZM23.3514 19.2852C23.827 18.7915 24.2997 18.3007 24.7941 17.8063C26.264 19.2762 26.928 20.1631 27.5826 21.0375C28.2561 21.9371 28.9198 22.8235 30.4412 24.3181C25.3281 24.3181 21.9445 24.3447 18.5697 24.3713H18.5695H18.5692C15.2119 24.3977 11.8633 24.424 6.82941 24.424C8.259 23.0032 8.89091 22.1577 9.53319 21.2984C10.1832 20.4287 10.8439 19.5448 12.3529 18.0358C12.8398 18.5313 13.4507 19.0439 14.0847 19.5758L14.0847 19.5758C14.7376 20.1236 15.4149 20.6919 16.0059 21.2828C18.1941 23.4711 19.3765 23.3122 21.5647 21.1063C22.1934 20.4873 22.7745 19.8841 23.3514 19.2852L23.3514 19.2852ZM3.61765 7.35929V23.8593C5.22517 22.2174 6.21294 20.99 7.18884 19.7774L7.18885 19.7774C8.21631 18.5008 9.23061 17.2404 10.9412 15.5299C9.32901 13.9177 8.36393 12.744 7.39147 11.5614C6.38402 10.3362 5.36864 9.10131 3.61765 7.35929ZM30.0772 19.9604C29.1161 18.7583 28.1631 17.5663 26.4706 15.8828C28.0291 14.265 28.9046 13.1717 29.7664 12.0954C30.7002 10.9294 31.6178 9.78337 33.3706 8.01223C33.3706 11.3853 33.4108 13.7269 33.4507 16.0546C33.4902 18.3545 33.5294 20.6407 33.5294 23.8946C31.9302 22.278 31 21.1146 30.0772 19.9604Z" fill="#6DB6FB"/>
</svg>
