<svg width="21" height="20" viewBox="0 0 21 20" fill="none" xmlns="http://www.w3.org/2000/svg">
<path fill-rule="evenodd" clip-rule="evenodd" d="M15.152 4.95226C15.1611 3.97039 14.3815 3.1624 13.4 3.13626H6.73598H6.44798C6.40531 3.13626 6.41953 3.05093 6.43375 2.96559C6.44086 2.92293 6.44798 2.88026 6.44798 2.84826C6.4361 2.59377 6.26684 2.37368 6.02393 2.29688C5.78102 2.22007 5.51599 2.30286 5.35998 2.50426C5.24991 2.6536 5.20648 2.84179 5.23997 3.02426C5.23997 3.13626 5.23998 3.16026 5.10398 3.16026H1.90398C1.40322 3.13118 0.913052 3.31237 0.551603 3.66015C0.190154 4.00793 -0.00978553 4.49076 -2.48618e-05 4.99226V15.5443C-0.0112764 16.2214 0.368745 16.8444 0.975975 17.1443C1.26065 17.2967 1.58148 17.3686 1.90398 17.3523H13.232C13.4119 17.3564 13.5917 17.3403 13.768 17.3043C14.5913 17.1088 15.1673 16.3663 15.152 15.5203V4.95226ZM4.61598 14.9683H3.01598C2.84914 14.9753 2.68709 14.9115 2.56978 14.7927C2.45247 14.6738 2.3908 14.511 2.39998 14.3443C2.40617 14.1815 2.47741 14.0281 2.59771 13.9183C2.71802 13.8085 2.87734 13.7516 3.03998 13.7603H4.59198C4.7546 13.7538 4.91304 13.8128 5.03182 13.924C5.15061 14.0353 5.21982 14.1896 5.22398 14.3523C5.23069 14.5162 5.16907 14.6756 5.05381 14.7924C4.93855 14.9091 4.77999 14.9728 4.61598 14.9683ZM4.67998 12.5603C4.82283 12.5504 4.95688 12.4876 5.05597 12.3843C5.22223 12.222 5.27293 11.9749 5.18398 11.7603C5.10391 11.5264 4.88703 11.367 4.63998 11.3603H2.99198C2.83484 11.3633 2.68644 11.4331 2.58398 11.5523C2.42387 11.7148 2.37661 11.9575 2.46398 12.1683C2.53357 12.3981 2.74382 12.5566 2.98398 12.5603H4.67998ZM4.63998 8.96826C4.88573 8.97144 5.10319 9.12814 5.18398 9.36026C5.27134 9.57106 5.22408 9.81367 5.06398 9.97626C4.95739 10.1 4.80327 10.1727 4.63998 10.1763H3.03998C2.86693 10.1936 2.69515 10.1329 2.57141 10.0107C2.44766 9.88851 2.38481 9.71751 2.39998 9.54426C2.41286 9.2223 2.67775 8.968 2.99998 8.96826H3.79997C3.90044 8.96826 3.99815 8.96734 4.09403 8.96643L4.09415 8.96643H4.09418C4.28072 8.96467 4.46035 8.96298 4.63998 8.96826ZM7.64797 14.9603H8.44798C8.61728 14.9622 8.77889 14.8896 8.88985 14.7617C9.0008 14.6338 9.04986 14.4636 9.02398 14.2963C9.00261 13.9788 8.73406 13.7349 8.41598 13.7443H6.81598C6.64578 13.7452 6.48471 13.8213 6.37598 13.9523C6.21236 14.1204 6.17086 14.3726 6.27198 14.5843C6.36197 14.8214 6.5947 14.9733 6.84798 14.9603H7.64797ZM6.19198 11.9363C6.19917 11.6333 6.43395 11.3847 6.73598 11.3603H8.41598C8.70231 11.3687 8.94152 11.581 8.98398 11.8643C9.03326 12.1608 8.85542 12.4481 8.56798 12.5363C8.48843 12.5483 8.40752 12.5483 8.32798 12.5363H6.84798C6.67996 12.5496 6.51396 12.4926 6.3896 12.3788C6.26524 12.2651 6.19367 12.1048 6.19198 11.9363ZM6.81598 10.1763H8.35997C8.52462 10.1829 8.68474 10.1215 8.80275 10.0065C8.92077 9.89149 8.9863 9.73302 8.98398 9.56826C8.98659 9.40268 8.91974 9.24358 8.79965 9.12957C8.67955 9.01555 8.51719 8.95705 8.35198 8.96826H6.81598C6.58359 8.94147 6.35644 9.05038 6.23182 9.24834C6.10719 9.44631 6.10719 9.69821 6.23182 9.89618C6.35644 10.0941 6.58359 10.203 6.81598 10.1763ZM12.312 14.9763H10.672C10.4277 14.9849 10.202 14.8465 10.099 14.6248C9.99602 14.4031 10.0358 14.1413 10.2 13.9603C10.3121 13.8349 10.4718 13.7623 10.64 13.7603H12.24C12.5537 13.7547 12.8187 13.9918 12.848 14.3043C12.8764 14.6335 12.6398 14.9266 12.312 14.9683V14.9763ZM13.52 6.53626C13.656 6.53626 13.656 6.50426 13.656 6.40026C13.6544 6.33882 13.6529 6.26293 13.6512 6.17865C13.644 5.82396 13.6338 5.32064 13.608 5.12026C13.6281 4.9359 13.5641 4.75228 13.4338 4.62037C13.3034 4.48846 13.1206 4.4223 12.936 4.44026H6.75998C6.72798 4.44026 6.69064 4.43404 6.65331 4.42781C6.57864 4.41537 6.50398 4.40293 6.47198 4.44026C6.44013 4.47742 6.45054 4.54627 6.46116 4.61645C6.46654 4.65203 6.47198 4.68796 6.47198 4.72026C6.47198 5.03837 6.21409 5.29626 5.89598 5.29626C5.57786 5.29626 5.31997 5.03837 5.31997 4.72026C5.31997 4.68559 5.32797 4.63937 5.33597 4.59315C5.35197 4.5007 5.36797 4.40826 5.31997 4.40826H4.99197H2.15198C1.97667 4.38741 1.80148 4.4481 1.67665 4.57293C1.55182 4.69777 1.49112 4.87295 1.51198 5.04826V6.39226C1.51198 6.53626 1.54398 6.53626 1.65598 6.53626H13.52Z" fill="#6DB6FB"/>
<path fill-rule="evenodd" clip-rule="evenodd" d="M15.112 19.0401C14.5836 19.0661 14.0681 18.8721 13.688 18.5041C13.297 18.0851 13.0946 17.5242 13.128 16.9521C13.1371 16.8938 13.1371 16.8344 13.128 16.7761C13.128 16.7761 13.072 16.7121 12.824 16.5841C12.1143 16.2136 11.4817 15.7113 10.96 15.1041C10.6271 14.7634 10.4504 14.2999 10.472 13.8241C10.5156 13.3314 10.7583 12.8778 11.144 12.5681C11.468 12.2636 11.8916 12.0873 12.336 12.0721C12.8442 12.0943 13.3225 12.319 13.664 12.6961C14.0289 13.1518 14.5628 13.4404 15.144 13.4961C15.2423 13.5075 15.3416 13.5075 15.44 13.4961C15.76 13.4401 15.832 13.3201 15.872 13.1921C15.9491 13.0439 15.9087 12.8617 15.776 12.7601C15.5345 12.5308 15.2659 12.332 14.976 12.1681L13.968 11.6161C13.552 11.4001 13.168 11.1761 12.736 10.9361C11.5797 10.2498 10.8666 9.00868 10.856 7.66409C10.8123 6.30849 11.4796 5.02846 12.616 4.28809C12.7639 4.16488 12.9316 4.06751 13.112 4.00009C13.416 3.91209 13.528 3.86409 13.52 3.38409C13.4797 2.92408 13.6401 2.4691 13.96 2.13609C14.3721 1.75718 14.9214 1.5635 15.48 1.60009H15.584C16.0578 1.56694 16.5242 1.7312 16.8727 2.05393C17.2212 2.37666 17.4207 2.82913 17.424 3.30409C17.4317 3.44532 17.4317 3.58686 17.424 3.72809L17.648 3.88009C18.0796 4.15401 18.4889 4.46163 18.872 4.80009C19.2877 5.14693 19.5399 5.65141 19.568 6.19209C19.5842 6.67871 19.3989 7.15046 19.056 7.49609C18.7342 7.8636 18.2724 8.07851 17.784 8.08809C17.2638 8.06831 16.77 7.85422 16.4 7.48809C16.0583 7.15214 15.5991 6.96271 15.12 6.96009C14.832 6.96009 14.76 7.05609 14.704 7.17609C14.6097 7.30902 14.6303 7.4916 14.752 7.60009C15.022 7.83002 15.3172 8.02862 15.632 8.19209C15.96 8.38409 16.296 8.55209 16.632 8.72809C16.968 8.90409 17.472 9.16809 17.88 9.40809C19.1993 10.0902 19.9718 11.5055 19.832 12.9841C19.812 14.6139 18.7916 16.0635 17.264 16.6321C17.1927 16.6534 17.1252 16.6858 17.064 16.7281C17.0691 16.784 17.0691 16.8402 17.064 16.8961C17.1205 17.4799 16.9289 18.0606 16.536 18.4961C16.1649 18.8703 15.6548 19.0732 15.128 19.0561L15.112 19.0401Z" fill="#6DB6FB"/>
<path fill-rule="evenodd" clip-rule="evenodd" d="M13.392 1.52814C13.9581 1.00846 14.7134 0.745107 15.48 0.800145H15.6C16.9846 0.745801 18.1549 1.8162 18.224 3.20015V3.26414C18.6402 3.53027 19.0359 3.8271 19.408 4.15214C19.9803 4.65178 20.3265 5.3615 20.368 6.12014C20.3905 6.82118 20.1245 7.50076 19.632 8.00014C19.3067 8.37969 18.879 8.65744 18.4 8.80015C19.923 9.65215 20.8057 11.3174 20.656 13.0561C20.6024 14.8691 19.5316 16.4971 17.888 17.2641C17.8615 17.9311 17.5976 18.5666 17.144 19.0561C16.6155 19.5912 15.8876 19.8812 15.136 19.8561C14.3898 19.8767 13.6686 19.5871 13.144 19.0561C12.6607 18.5714 12.3755 17.9239 12.344 17.2401C11.589 16.8311 10.9142 16.2891 10.352 15.6401C9.87652 15.1391 9.62528 14.4662 9.65595 13.7761C9.71654 13.0675 10.0596 12.4131 10.608 11.9601C10.9699 11.6394 11.4077 11.4163 11.88 11.3121C10.7226 10.4436 10.034 9.08702 10.016 7.64014C9.97024 5.99519 10.786 4.44555 12.168 3.55215C12.3393 3.42939 12.5246 3.32735 12.72 3.24814C12.7056 2.60813 12.9475 1.98891 13.392 1.52814ZM15.568 2.40014H15.48C14.664 2.40014 14.32 2.62414 14.32 3.33614C14.4485 3.99725 14.0259 4.6401 13.368 4.78414C13.2532 4.8268 13.1454 4.8861 13.048 4.96014C12.1591 5.55683 11.6339 6.5639 11.6533 7.6343C11.6727 8.70469 12.234 9.69206 13.144 10.2561C13.5195 10.4749 13.9057 10.6808 14.2927 10.8872C14.6558 11.0809 15.0196 11.2749 15.376 11.4801C15.7269 11.6771 16.0543 11.9133 16.352 12.1841C16.7102 12.5091 16.8311 13.0213 16.656 13.4721C16.4857 13.9119 16.0847 14.2204 15.616 14.2721C15.4686 14.3031 15.3185 14.3192 15.168 14.3201C14.3815 14.2688 13.6489 13.9025 13.136 13.3041C12.9324 13.0706 12.6449 12.9269 12.336 12.9041C12.0852 12.9219 11.8493 13.0299 11.672 13.2081C11.4438 13.3574 11.2968 13.6033 11.2734 13.875C11.25 14.1466 11.3527 14.414 11.552 14.6001C12.0027 15.1274 12.5447 15.5691 13.152 15.9041C13.704 16.1841 13.952 16.3761 13.952 16.9841C13.952 17.8561 14.392 18.2721 15.136 18.2721C15.864 18.2721 16.312 17.8081 16.272 16.9441C16.1887 16.4575 16.5079 15.993 16.992 15.8961C18.2201 15.4222 19.0328 14.2446 19.04 12.9281C19.1526 11.7593 18.5364 10.6411 17.488 10.1121C17.1718 9.93686 16.8497 9.76749 16.5267 9.59768C16.098 9.37222 15.6678 9.14599 15.248 8.90415C14.8689 8.71463 14.5188 8.47221 14.208 8.18414C13.8313 7.84473 13.7414 7.28897 13.992 6.84815C14.1939 6.40955 14.6463 6.14189 15.128 6.17615C15.8009 6.18172 16.4469 6.44181 16.936 6.90414C17.1583 7.13928 17.4611 7.28208 17.784 7.30414C18.0546 7.2946 18.308 7.16932 18.48 6.96014C18.6893 6.74533 18.7939 6.44955 18.7662 6.15091C18.7385 5.85226 18.5812 5.58078 18.336 5.40814C17.7907 4.96688 17.2219 4.5556 16.632 4.17615V3.37614C16.6437 3.09802 16.5321 2.8289 16.3269 2.64072C16.1218 2.45255 15.844 2.36451 15.568 2.40014Z" fill="white"/>
</svg>
