<svg id="Leys" xmlns="http://www.w3.org/2000/svg" viewBox="0 0 69.76 63.17"><defs><style>.cls-1{fill:#464646;}</style></defs><title>ico_kets</title><path class="cls-1" d="M53,48.41C48.56,51,44.3,50.49,40.12,48c-.92.91-1.82,1.73-2.63,2.64a2.46,2.46,0,0,1-2.28.94c-1-.1-2-.09-3.21-.14l.29,5.43-5.47-.31.47,5.26-5.59-.11A23.71,23.71,0,0,1,21.77,65,4.71,4.71,0,0,1,21,67,5.7,5.7,0,0,1,15,69.57a36.51,36.51,0,0,0-5,.08c0-2.93,0-5.63,0-8.33,0-.39.43-.82.75-1.14q10-10,20-19.87a1.49,1.49,0,0,0,.4-2.08c-2.77-5.72-2-10.1,2.56-14.6,3.32-3.29,6.7-6.52,11-8.48,5.46-2.45,8.94-1.43,12.62,2.21,1.54,1.52,2.8,2.36,5.29,2.07,8.66-1,15.24,6.11,14.06,14.76a1.6,1.6,0,0,0,.39,1.31,6.58,6.58,0,0,1,2.66,5.8c0,8.08,0,16.15,0,24.23,0,1.62,0,3.23,0,4.85,0,4.2-2.4,6.57-6.58,6.59-4.54,0-9.08,0-13.62,0-4.13,0-6.56-2.5-6.55-6.65l0-20.43C53,49.45,53,49,53,48.41ZM73.14,36.86c-3.22,0-6.18,0-9.14,0a1.43,1.43,0,0,0-.91.54c-2.31,2.72-4.62,5.44-6.87,8.21a3.45,3.45,0,0,0-.78,1.93c-.06,7.59-.07,15.18-.07,22.78,0,2.87,1.29,4.2,4.13,4.22q6.89,0,13.75,0c2.74,0,4.09-1.37,4.1-4.12,0-3.49,0-7,0-10.48q0-9.42,0-18.85c0-1.44-.3-2.72-1.7-3.49a19,19,0,0,1-1.46,2.11,1.28,1.28,0,0,0-.22,1.7,4.84,4.84,0,1,1-8.88.28,4.55,4.55,0,0,1,5.12-3C71.93,39.16,72.44,38.3,73.14,36.86ZM57.29,21a32.42,32.42,0,0,0-3.5-3.45c-2.52-1.84-5.28-1.57-7.95-.3A36.56,36.56,0,0,0,34,26.81a8.33,8.33,0,0,0-1,10,25.35,25.35,0,0,0,9,9.42,8.42,8.42,0,0,0,10.57-.62,37.27,37.27,0,0,0,9.15-10.83c2.42-4.52,1.93-7.42-1.67-11C59,22.64,59,22.64,57.79,23.9l.26.41a3.35,3.35,0,0,1-.34,4.42A3.21,3.21,0,0,1,53.4,29a14.48,14.48,0,0,1-2.86-3,3.05,3.05,0,0,1,.4-4A3.37,3.37,0,0,1,55,21.4c.33.18.65.4,1,.6ZM33.12,41.42a1.58,1.58,0,0,0-.37.19L12.83,61.47a1.32,1.32,0,0,0-.42.77c-.08,1.59-.11,3.19-.15,5l4.34-.14a3,3,0,0,0,2.81-2.79c0-1.6-.12-3.2-.19-5.12l5.7.22-.43-5.31,5.44.15-.27-5.08c3.12-.29,6.64,1.08,8.37-2.84Zm41-7A10.28,10.28,0,0,0,62,22c3.77,3.54,4.77,7.69,2.72,12.4ZM67.89,45.22a2.43,2.43,0,1,0,0-3.44A2.57,2.57,0,0,0,67.89,45.22ZM55.07,24.64c-.3-.31-.56-.73-.93-.9a4.89,4.89,0,0,0-1.4-.15c0,.48-.22,1.09,0,1.41a8.18,8.18,0,0,0,1.91,1.94c.3.23.92,0,1.39,0A3.87,3.87,0,0,0,56,25.58C55.81,25.21,55.38,25,55.07,24.64Z" transform="translate(-9.99 -13.81)"/></svg>