<svg id="Loan" xmlns="http://www.w3.org/2000/svg" viewBox="0 0 90 90"><defs><style>.cls-1{fill:#0a3e70;}</style></defs><title>icon_loans</title><path class="cls-1" d="M87.56,21.21c0-1.67-.58-2.32-2.31-2.32q-27.79.06-55.59,0c-1.76,0-2.29.72-2.27,2.35.06,3.64,0,7.27,0,10.91v3.39c-1.1.07-1.94.07-2.75.19a40,40,0,0,0-6.49,1.07C13.31,38.37,8.54,40.22,3.73,42c-.88.31-1.81.71-1.41,1.86s1.47.91,2.39.58c1.51-.55,3-1.16,4.51-1.69,5.71-2,11.21-4.74,17.49-4.58,1.79,0,3.57-.2,5.36-.22,3.18,0,6.37,0,9.54,0,.17,2.76-.7,4.43-3,5.44-1.4.6-3,.84-4.42,1.33C30,46.08,25.87,47.49,21.75,49c-.88.31-1.89.94-1.25,2.12.73,1.34,1.69.49,2.59,0,1.34-.68,2.72-1.31,4.12-2a3.77,3.77,0,0,1,.17.63c0,1.49,0,3,0,4.47,0,2.32.24,2.54,2.57,2.54h24a11.72,11.72,0,0,1-1,.82c-3.42,2.07-6.84,4.11-10.25,6.18a24.42,24.42,0,0,1-17.78,3.41c-6.78-1.29-13.6-2.36-20.41-3.52-1-.16-2-.26-2.2,1.09s.87,1.37,1.79,1.53c6.21,1.07,12.44,2,18.63,3.24,7.22,1.39,14.06.91,20.48-3.06,5-3.07,10-6,15.09-8.85a6.85,6.85,0,0,1,3.18-.8q11.9-.11,23.78,0c1.65,0,2.36-.47,2.35-2.22Q87.5,37.92,87.56,21.21Zm-2.75.45V27.4l-5.64-5.74Zm-54.61,0h5.47L30.2,27.17ZM84.77,54.13H79.26c1.85-1.84,3.72-3.68,5.51-5.45ZM84.9,43a3.28,3.28,0,0,1-.82,2q-4.1,4.25-8.33,8.34a3,3,0,0,1-1.82.87q-21.51.06-43,0a6.94,6.94,0,0,1-.81-.16c0-1.66-.07-3.36.06-5,0-.37.71-.88,1.18-1,2.23-.61,4.52-1,6.74-1.68,4.51-1.34,6.78-4.87,6.19-9.13C44,35.45,43.14,35,41.48,35.05c-3.21.17-6.42.2-9.64.29H30.28a5.35,5.35,0,0,1,1.87-5.93c2.46-2.15,4.63-4.63,7-6.87a3.73,3.73,0,0,1,2.31-1q16.07-.09,32.15,0a3.42,3.42,0,0,1,2.15.91q4.2,4,8.22,8.19a3.57,3.57,0,0,1,.89,2.15C85,36.22,85,39.62,84.9,43Z"/><path class="cls-1" d="M64.3,38.34c-1.24-1.19-3-1.87-4.65-2.86V30.61A37.13,37.13,0,0,0,63,32.32a7.82,7.82,0,0,0,2,.24c-.07-.7.13-1.63-.25-2a7.64,7.64,0,0,0-2.64-1.7,11.46,11.46,0,0,0-2.57-.49L60,28c-.58-.88-1.11-2.46-1.75-2.51-2.12-.17-.79,2.06-1.6,2.93-3.84.5-5.6,1.95-5.84,4.83s1.29,4.53,6,5.9v5.46c-1.71.33-2.87,0-3.55-1.7-.19-.45-1.06-.62-1.62-.92-.24.59-.77,1.23-.68,1.77a4,4,0,0,0,3,3.17,23.17,23.17,0,0,0,2.85.57A8.84,8.84,0,0,0,57,49.81c.17.5.79,1.17,1.21,1.17s1.06-.67,1.21-1.17a8.45,8.45,0,0,0,0-2.25c4.54-1.28,6-2.66,5.93-5.77A5.42,5.42,0,0,0,64.3,38.34Zm-7.46-1.77c-1.23-.63-2.41-.88-3-1.61a2.72,2.72,0,0,1,0-2.57c.53-.77,1.7-1.09,2.59-1.6l.41.58Zm2.75,8V39c2.24-.09,3.23.81,3.22,2.81S61.75,44.67,59.59,44.56Z"/></svg>