<svg id="Calque_1" data-name="Calque 1" xmlns="http://www.w3.org/2000/svg" xmlns:xlink="http://www.w3.org/1999/xlink" viewBox="0 0 42.37 33.58"><defs><style>.cls-1{fill:none;}.cls-2{clip-path:url(#clip-path);}.cls-3{fill:#464646;}</style><clipPath id="clip-path" transform="translate(0 0)"><rect class="cls-1" width="42.37" height="33.58"/></clipPath></defs><title>ico_car_holder</title><g class="cls-2"><path class="cls-3" d="M41.29,11.1a12.18,12.18,0,0,0-1.77,0c-.81.1-1.13-.24-1.38-1-.83-2.47-1.77-4.9-2.64-7.36A3.18,3.18,0,0,0,32.44.42C29,.28,25.47.16,22,0h0c-.19,0-.41,0-.62,0H21c-.22,0-.43,0-.62,0h0c-3.49.12-7,.24-10.46.38A3.17,3.17,0,0,0,6.87,2.77C6,5.22,5.07,7.66,4.23,10.13c-.25.75-.57,1.09-1.38,1a12.17,12.17,0,0,0-1.77,0A1,1,0,0,0,0,12.16c0,.69,0,1.38,0,2.07a1,1,0,0,0,1,1c.39,0,.78,0,1.2,0A11.49,11.49,0,0,0,2,17c0,3-.09,6.06,0,9.08,0,.43.49.85.74,1.28.13.23.35.47.35.71,0,1.28,0,2.56,0,3.84a1.59,1.59,0,0,0,1.66,1.69c.84,0,1.67,0,2.51,0,1.56,0,2.13-.57,2.13-2.14,0-1.25,0-2.5,0-3.82h1c3.42,0,6.84,0,10.25,0h1.29c3.42,0,6.83,0,10.25,0h1c0,1.33,0,2.58,0,3.82,0,1.57.57,2.14,2.13,2.14.84,0,1.68,0,2.51,0a1.59,1.59,0,0,0,1.66-1.69c0-1.28,0-2.56,0-3.84,0-.24.22-.48.35-.71.25-.43.73-.85.74-1.28,0-3,0-6.06,0-9.08a11.38,11.38,0,0,0-.29-1.73c.42,0,.81,0,1.2,0a1,1,0,0,0,1-1c0-.69,0-1.38,0-2.07a1,1,0,0,0-1.07-1.06M10.37,4.66A.8.8,0,0,1,11,4.3c3.25-.15,6.5-.27,9.74-.39h.95c3.25.12,6.49.24,9.74.39a.8.8,0,0,1,.6.37c.94,2.56,1.84,5.14,2.75,7.71,0,0,0,.09,0,.2H7.65c0-.11,0-.16,0-.2.91-2.57,1.81-5.15,2.75-7.71m2.76,16.71a1.42,1.42,0,0,1-1.55,1.26c-1.16,0-2.31,0-3.47,0A1.52,1.52,0,0,1,6.47,21a5.78,5.78,0,0,1,.06-1.25A1.33,1.33,0,0,1,7.9,18.6c.64,0,1.28,0,1.92,0h1.7a2.17,2.17,0,0,1,.65.09c.83.28,1.19,1.3.95,2.68M35.9,21a1.52,1.52,0,0,1-1.64,1.6c-1.15,0-2.31,0-3.47,0a1.42,1.42,0,0,1-1.55-1.26c-.24-1.38.12-2.4,1-2.68a2.16,2.16,0,0,1,.65-.09h1.7c.64,0,1.28,0,1.92,0a1.33,1.33,0,0,1,1.38,1.18A5.66,5.66,0,0,1,35.9,21" transform="translate(0 0)"/></g></svg>