<svg id="Calque_1" data-name="Calque 1" xmlns="http://www.w3.org/2000/svg" xmlns:xlink="http://www.w3.org/1999/xlink" viewBox="0 0 47.29 41.73"><defs><style>.cls-1{fill:none;}.cls-2{clip-path:url(#clip-path);}.cls-3{fill:#ffffff;}</style><clipPath id="clip-path" transform="translate(0 0)"><rect class="cls-1" width="47.29" height="41.73"/></clipPath></defs><title>ico_servicecar_holder</title><g class="cls-2"><path class="cls-3" d="M2.25,20.35c-.42,0-.81,0-1.2,0a1,1,0,0,1-1-1c0-.69,0-1.38,0-2.07a1,1,0,0,1,1.07-1.06,12.18,12.18,0,0,1,1.77,0c.81.1,1.13-.24,1.38-1,.83-2.47,1.77-4.9,2.64-7.36A3.18,3.18,0,0,1,9.92,5.53c3.81-.15,7.62-.28,11.44-.41.22,0,8.49,0,8.68,0A10.58,10.58,0,0,0,30.36,9c-.53,0-9.1,0-9.65.06-3.25.12-6.49.24-9.74.39a.8.8,0,0,0-.6.37c-.94,2.56-1.84,5.14-2.75,7.71,0,0,0,.09,0,.2,5.87,0,16.2-.07,22.13-.07,0,.3-.94,7.21-2.36,8.11-2.58,1.64-5.1,7-5.6,7-3.84,0-7.69,0-11.53,0h-1c0,1.33,0,2.58,0,3.82,0,1.57-.57,2.14-2.13,2.14-.84,0-1.68,0-2.51,0A1.59,1.59,0,0,1,3,37c0-1.28,0-2.56,0-3.84,0-.24-.22-.48-.36-.71-.25-.43-.73-.85-.74-1.28,0-3,0-6.06,0-9.08a11.63,11.63,0,0,1,.29-1.73m7.57,3.36c-.64,0-1.28,0-1.92,0A1.33,1.33,0,0,0,6.53,24.9a5.77,5.77,0,0,0-.06,1.25,1.52,1.52,0,0,0,1.64,1.6c1.16,0,2.31,0,3.47,0a1.42,1.42,0,0,0,1.55-1.26c.24-1.38-.12-2.4-.95-2.68a2.2,2.2,0,0,0-.65-.08H9.82" transform="translate(0 0)"/><path class="cls-3" d="M32.89,19.91c.71-2.61,1.41-5.23,2.14-7.84a1.09,1.09,0,0,0-.24-1.12A6.94,6.94,0,0,1,38.36.05c.64-.17.88.09.69.83-.32,1.26-.71,2.51-1,3.79A2.74,2.74,0,0,0,40.25,8a2.84,2.84,0,0,0,3.16-2.18c.35-1.16.63-2.33,1-3.49a1,1,0,0,1,.48-.64c.15-.06.47.19.64.36a6.91,6.91,0,0,1-2.62,11.05,1.1,1.1,0,0,0-.77.85Q40,21.92,37.82,29.83A1.07,1.07,0,0,0,38,30.9a6.78,6.78,0,0,1-3.3,10.77.9.9,0,0,1-.74,0,.89.89,0,0,1-.09-.73c.28-1.15.61-2.28.92-3.43a2.78,2.78,0,0,0-1-3.12,2.68,2.68,0,0,0-4.22,1.28c-.41,1.21-.68,2.47-1.05,3.7-.08.28-.29.66-.51.71s-.58-.19-.78-.4a6.92,6.92,0,0,1,2.52-10.91,1.49,1.49,0,0,0,1-1.12c.66-2.58,1.38-5.14,2.08-7.71" transform="translate(0 0)"/></g></svg>