<svg id="Calque_1" data-name="Calque 1" xmlns="http://www.w3.org/2000/svg" xmlns:xlink="http://www.w3.org/1999/xlink" viewBox="0 0 33.85 33.82"><defs><style>.cls-1{fill:none;}.cls-2{clip-path:url(#clip-path);}.cls-3{fill:#0c4b8a;}</style><clipPath id="clip-path" transform="translate(0 0)"><rect class="cls-1" width="33.85" height="33.82"/></clipPath></defs><title>ico_search_head</title><g class="cls-2"><path class="cls-3" d="M33.09,29.39c-2.15-2.2-4.34-4.36-6.53-6.53-.31-.31-.42-.52-.14-.94a13.58,13.58,0,0,0,2.21-7.31A14.32,14.32,0,0,0,14.24,0c-.72.07-1.52.08-2.33.22a14.3,14.3,0,1,0,10,26.19.62.62,0,0,1,.94.11C25,28.69,27.2,30.84,29.37,33a2.45,2.45,0,0,0,2.75.64,2.56,2.56,0,0,0,1-4.25m-18.8-6a9.1,9.1,0,1,1,9.16-9.09,9.06,9.06,0,0,1-9.16,9.09" transform="translate(0 0)"/></g></svg>