<svg width="21" height="30" viewBox="0 0 21 30" fill="none" xmlns="http://www.w3.org/2000/svg">
<path fill-rule="evenodd" clip-rule="evenodd" d="M7.92967 0.214129C3.19558 1.21231 -0.215892 5.61446 0.0106513 10.4125C0.0841513 12.1485 0.436378 13.8606 1.05342 15.4812C2.83245 20.5094 5.63425 24.9623 8.6726 29.2663C8.96692 29.719 9.46319 29.9938 9.99725 29.9999C10.5313 30.006 11.0335 29.7426 11.3378 29.2968C11.5243 29.0463 11.7023 28.7798 11.8792 28.5151C11.9962 28.3401 12.1126 28.1658 12.2307 27.9974C14.7959 24.2585 17.128 20.3876 18.7338 16.1072C19.5533 13.9146 20.173 11.678 19.9564 9.28236C19.7045 6.38672 18.2456 3.73865 15.9476 2.00589C13.6495 0.273141 10.7316 -0.378922 7.92967 0.214129ZM15.9814 10.0942C15.9761 13.4185 13.3282 16.1142 10.0552 16.1275C8.4611 16.1294 6.93255 15.4834 5.81038 14.3335C4.68822 13.1836 4.06574 11.6254 4.08177 10.0065C4.12394 6.68243 6.80156 4.01714 10.0745 4.04126C13.3475 4.06539 15.9868 6.76987 15.9814 10.0942Z" fill="white"/>
</svg>
