<svg id="Layer_1" data-name="Layer 1" xmlns="http://www.w3.org/2000/svg" viewBox="0 0 599.25 159.75"><defs><style>.cls-1{fill:#003057;}.cls-2{fill:#008801;}.cls-3{fill:none;}.cls-4{fill:#00bbf0;}.cls-5{fill:#e41a01;}.cls-6{fill:#ffb901;}.cls-7{fill:#e4249e;}.cls-8{fill:#595959;}</style></defs><title>logo_321ignition</title><path class="cls-1" d="M153.92,128.5a46.67,46.67,0,0,0,.94-6.81q-14.06,10.39-20.16,20a76.51,76.51,0,0,0-11.36,24.83,48.19,48.19,0,0,0,12.4-8Q150.3,145.57,153.92,128.5Z" transform="translate(-60.07 -32.95)"/><path class="cls-1" d="M155,53.08Q147.23,63.65,143,80.82h15.11a38,38,0,0,0,4.2-11.13q2.76-13.14-2.59-22.1A53.36,53.36,0,0,0,155,53.08Z" transform="translate(-60.07 -32.95)"/><path class="cls-2" d="M155,53.08Q147.23,63.65,143,80.82h15.11a38,38,0,0,0,4.2-11.13q2.76-13.14-2.59-22.1A53.36,53.36,0,0,0,155,53.08Z" transform="translate(-60.07 -32.95)"/><path class="cls-2" d="M153.92,128.5a46.67,46.67,0,0,0,.94-6.81q-14.06,10.39-20.16,20a76.51,76.51,0,0,0-11.36,24.83,48.19,48.19,0,0,0,12.4-8Q150.3,145.57,153.92,128.5Z" transform="translate(-60.07 -32.95)"/><path class="cls-3" d="M151,89.72a32.61,32.61,0,0,1-10.76,7q3.62,0,9.09,6.22,6.29,7.31,5.58,18.79,5.66-4.18,12.59-8.49,21.06-13.08,27.65-18.74,10.11-8.81,12.34-19.3,1.85-8.53-1.67-14.19T193.43,55.3q-12.06,0-18.37,9-3.62,5.2-6.4,16.51H158.08A37.51,37.51,0,0,1,151,89.72Z" transform="translate(-60.07 -32.95)"/><path class="cls-3" d="M153.92,128.5a46.67,46.67,0,0,0,.94-6.81q-14.06,10.39-20.16,20a76.51,76.51,0,0,0-11.36,24.83,48.19,48.19,0,0,0,12.4-8Q150.3,145.57,153.92,128.5Z" transform="translate(-60.07 -32.95)"/><path class="cls-3" d="M143,80.82h15.11a38,38,0,0,0,4.2-11.13q2.76-13.14-2.59-22.1A53.36,53.36,0,0,0,155,53.08Q147.23,63.65,143,80.82Z" transform="translate(-60.07 -32.95)"/><path class="cls-4" d="M154.87,121.69q.7-11.48-5.58-18.79-5.48-6.21-9.09-6.22a32.61,32.61,0,0,0,10.76-7,37.51,37.51,0,0,0,7.12-8.91H143Q147.23,63.65,155,53.08a53.36,53.36,0,0,1,4.66-5.49,25.06,25.06,0,0,0-3.58-4.67q-9.7-10-29-10a58.19,58.19,0,0,0-18,2.5A46.69,46.69,0,0,0,95.2,42.69,58.28,58.28,0,0,0,81.93,57.25a77.66,77.66,0,0,0-7.51,19H99.1q1.95-9.93,7.61-15.86t15-5.94q8.16,0,11.64,4.82t1.81,12.52Q132.68,83.69,123,87.59q-5.57,2.32-18.55,2.5l-4,18.93q13.17,0,18.74,2.5,9.83,4.45,7.05,17.72-2.14,10-9.09,15.35a23.84,23.84,0,0,1-14.75,5.33q-12.71,0-15.49-9.74-1.39-5.29.28-13.36h-26q-2.78,16.05,1,26Q69.41,171.46,98,171.46a61.5,61.5,0,0,0,25.36-4.95,76.51,76.51,0,0,1,11.36-24.83Q140.79,132.08,154.87,121.69Z" transform="translate(-60.07 -32.95)"/><path class="cls-5" d="M211.27,75.34H234.4q2.27-11.27-.31-19.93c-.37.09-.73.19-1.1.27q-5.2,1.11-17.91,1.67Z" transform="translate(-60.07 -32.95)"/><path class="cls-6" d="M215.08,57.34q12.71-.56,17.91-1.67c.37-.08.74-.18,1.1-.27a28.85,28.85,0,0,0-5.77-10.63Q218.2,32.95,196.87,32.95q-23,0-37.18,14.64,5.33,9,2.59,22.1a38,38,0,0,1-4.2,11.13h10.58q2.78-11.32,6.4-16.51,6.31-9,18.37-9,8.81,0,12.34,5.66t1.67,14.19q-2.23,10.48-12.34,19.3-6.59,5.66-27.65,18.74-6.95,4.31-12.59,8.49a46.67,46.67,0,0,1-.94,6.81q-3.62,17.07-18.18,30a48.19,48.19,0,0,1-12.4,8c-.14.54-.29,1.06-.42,1.61H215L220,144.83H161.24a39.33,39.33,0,0,1,7.7-7.33q4.36-3.15,15.77-10.21l12.15-7.51q15.4-9.46,22.92-17.16a53.19,53.19,0,0,0,14.47-26.53c.05-.25.09-.49.14-.74H211.27Z" transform="translate(-60.07 -32.95)"/><path class="cls-7" d="M256.92,33.59A24.77,24.77,0,0,1,254.69,39a29.52,29.52,0,0,1-7.24,9.65,31.55,31.55,0,0,1-13.37,6.78q2.58,8.67.31,19.93h8.51l-19.67,92.77h27.09L278.91,33.59Z" transform="translate(-60.07 -32.95)"/><path class="cls-8" d="M286.46,82.52h13.67V95.47H286.46Zm0,23.62h13.67v62H286.46Z" transform="translate(-60.07 -32.95)"/><path class="cls-8" d="M369.63,164.88q0,14-7.85,20.92t-22.6,6.89a47.35,47.35,0,0,1-9.41-1,28,28,0,0,1-8.63-3.24,20.81,20.81,0,0,1-6.53-6,18.21,18.21,0,0,1-3.12-9.11h13.67a10.94,10.94,0,0,0,2,4.68,10.52,10.52,0,0,0,3.42,2.82A13,13,0,0,0,335,182.2a40.89,40.89,0,0,0,5,.3q8.27,0,12.11-4.08T356,166.68v-9.47h-.24a20.78,20.78,0,0,1-7.85,8,21.07,21.07,0,0,1-10.73,2.88,28.3,28.3,0,0,1-12.65-2.58,24.05,24.05,0,0,1-8.63-7.07,29.36,29.36,0,0,1-5-10.37,48.89,48.89,0,0,1-1.56-12.59,36.57,36.57,0,0,1,1.92-11.87,30.26,30.26,0,0,1,5.51-9.89,26.43,26.43,0,0,1,8.81-6.77,26.82,26.82,0,0,1,11.81-2.52,23.81,23.81,0,0,1,10.79,2.46,16.69,16.69,0,0,1,7.55,7.73H356v-8.51h13.67Zm-30.33-7.55a14.51,14.51,0,0,0,12.89-6.77,21.64,21.64,0,0,0,2.88-7,34.79,34.79,0,0,0,.9-7.85,30.62,30.62,0,0,0-1-7.67,20.67,20.67,0,0,0-2.94-6.59,14.21,14.21,0,0,0-5.16-4.55,16.1,16.1,0,0,0-7.61-1.68,14.38,14.38,0,0,0-7.67,1.92,15.34,15.34,0,0,0-5,5,21.42,21.42,0,0,0-2.76,7,36.57,36.57,0,0,0-.84,7.73,29.35,29.35,0,0,0,1,7.49,20.66,20.66,0,0,0,2.94,6.53,15.67,15.67,0,0,0,5,4.67A14.29,14.29,0,0,0,339.3,157.33Z" transform="translate(-60.07 -32.95)"/><path class="cls-8" d="M381.13,106.14h12.95v9.11l.24.24a22.93,22.93,0,0,1,8.15-8.09,21.73,21.73,0,0,1,11.15-2.94q10.19,0,16.06,5.27t5.88,15.82v42.56H421.89v-39q-.24-7.31-3.12-10.61t-9-3.3a14.83,14.83,0,0,0-6.23,1.26,13.49,13.49,0,0,0-4.67,3.48,16.34,16.34,0,0,0-3,5.21,18.61,18.61,0,0,0-1.08,6.35v36.56H381.13Z" transform="translate(-60.07 -32.95)"/><path class="cls-8" d="M447.35,82.52H461V95.47H447.35Zm0,23.62H461v62H447.35Z" transform="translate(-60.07 -32.95)"/><path class="cls-8" d="M466.94,106.14h10.31V87.56h13.67v18.58h12.35v10.19H490.91v33.09a32.92,32.92,0,0,0,.18,3.72,6.4,6.4,0,0,0,.84,2.64,4,4,0,0,0,2,1.62,9.73,9.73,0,0,0,3.6.54q1.44,0,2.88-.06a14.26,14.26,0,0,0,2.88-.42V168l-4.44.48a40.33,40.33,0,0,1-4.44.24,30.27,30.27,0,0,1-8.69-1,11.57,11.57,0,0,1-5.16-3,10.31,10.31,0,0,1-2.52-5,37.27,37.27,0,0,1-.78-6.83V116.33H466.94Z" transform="translate(-60.07 -32.95)"/><path class="cls-8" d="M510.7,82.52h13.67V95.47H510.7Zm0,23.62h13.67v62H510.7Z" transform="translate(-60.07 -32.95)"/><path class="cls-8" d="M564.73,169.8a33.78,33.78,0,0,1-13.25-2.46,28.22,28.22,0,0,1-9.83-6.77,28.91,28.91,0,0,1-6.11-10.31,42.1,42.1,0,0,1,0-26.25,28.92,28.92,0,0,1,6.11-10.31,28.24,28.24,0,0,1,9.83-6.77,36.93,36.93,0,0,1,26.49,0,28.28,28.28,0,0,1,9.83,6.77A29,29,0,0,1,593.92,124a42.12,42.12,0,0,1,0,26.25,29,29,0,0,1-6.11,10.31,28.25,28.25,0,0,1-9.83,6.77A33.79,33.79,0,0,1,564.73,169.8Zm0-10.79a15.68,15.68,0,0,0,7.91-1.92,16.65,16.65,0,0,0,5.51-5,22,22,0,0,0,3.18-7,31.45,31.45,0,0,0,0-15.88,21.21,21.21,0,0,0-3.18-7,16.94,16.94,0,0,0-5.51-5,17.27,17.27,0,0,0-15.82,0,16.92,16.92,0,0,0-5.51,5,21.17,21.17,0,0,0-3.18,7,31.48,31.48,0,0,0,0,15.88,21.93,21.93,0,0,0,3.18,7,16.63,16.63,0,0,0,5.51,5A15.67,15.67,0,0,0,564.73,159Z" transform="translate(-60.07 -32.95)"/><path class="cls-8" d="M604.89,106.14h12.95v9.11l.24.24a22.93,22.93,0,0,1,8.15-8.09,21.73,21.73,0,0,1,11.15-2.94q10.19,0,16.06,5.27t5.88,15.82v42.56H645.65v-39q-.24-7.31-3.12-10.61t-9-3.3a14.83,14.83,0,0,0-6.23,1.26,13.49,13.49,0,0,0-4.67,3.48,16.34,16.34,0,0,0-3,5.21,18.61,18.61,0,0,0-1.08,6.35v36.56H604.89Z" transform="translate(-60.07 -32.95)"/></svg>