<?xml version="1.0" encoding="UTF-8"?>
<svg width="289px" height="109px" viewBox="0 0 289 109" version="1.1" xmlns="http://www.w3.org/2000/svg" xmlns:xlink="http://www.w3.org/1999/xlink">
    <!-- Generator: Sketch 51.3 (57544) - http://www.bohemiancoding.com/sketch -->
    <title>logo_ford</title>
    <desc>Created with Sketch.</desc>
    <defs></defs>
    <g id="Page-1" stroke="none" stroke-width="1" fill="none" fill-rule="evenodd">
        <g id="ico_ford_head" transform="translate(-325.000000, -21.000000)" fill-rule="nonzero">
            <g id="logo_ford" transform="translate(325.000000, 21.000000)">
                <path d="M144.53,0.95 C64.6,0.95 0.53,24.95 0.53,54.95 C0.53,84.81 65.13,108.95 144.53,108.95 C223.93,108.95 288.53,84.73 288.53,54.95 C288.53,25.17 223.93,0.95 144.53,0.95 Z" id="Shape" fill="#00417B"></path>
                <path d="M229.13,39.46 C229.32,39.13 229.13,38.89 228.7,38.89 L221.42,38.89 C220.88,38.89 220.6,38.96 220.35,39.46 C219.52,41.06 209.35,56.3 207.45,59.26 C207.13,59.71 206.74,59.65 206.7,59.14 C206.263867,56.9457689 204.706964,55.14204 202.6,54.39 C200.869303,53.6946585 198.983574,53.4770744 197.14,53.76 C193.844574,54.3653229 190.76154,55.8121097 188.19,57.96 C184.24,60.96 180.83,64.85 176.44,67.73 C174.04,69.29 170.75,70.66 168.55,68.62 C166.55,66.77 166.78,62.67 169.83,59.5 C170.15,59.17 170.54,59.45 170.47,59.74 C170.13033,61.1398753 170.569592,62.6142671 171.62,63.6 C172.978114,64.7563883 174.904557,64.9664736 176.48,64.13 C178.342081,63.1598031 179.60646,61.3343093 179.86,59.25 C180.077548,57.7254553 179.651874,56.1790589 178.684772,54.980611 C177.71767,53.782163 176.296096,53.0394204 174.76,52.93 C172.060632,52.8097636 169.424026,53.7665676 167.43,55.59 C166.313097,56.4927009 165.341733,57.5618758 164.55,58.76 C164.3,59.12 163.92,59.16 163.93,58.63 C164.05,54.49 162.33,52.16 158.93,52.08 C156.27,52.02 153.43,53.46 151.22,55.22 C148.789804,57.3951895 146.511158,59.7339756 144.4,62.22 C144.12,62.52 143.87,62.51 143.79,61.93 C143.804402,59.3625806 143.112511,56.8406394 141.79,54.64 C141.304485,53.9279113 140.3609,53.6952465 139.6,54.1 C138.690924,54.5204227 137.823717,55.0260143 137.01,55.61 C136.529518,56.0031182 136.352606,56.6584983 136.57,57.24 C137.784824,61.4308541 137.534378,65.9106682 135.86,69.94 C134.33,73.55 131.36,76.8 127.86,77.94 C125.56,78.67 123.17,78.31 121.69,76.27 C119.69,73.46 120.48,68.57 123.51,64.5 C126.210461,61.1277897 129.813808,58.592615 133.9,57.19 C134.081677,57.152999 134.236043,57.0340851 134.318176,56.8678633 C134.400309,56.7016416 134.400982,56.5067855 134.32,56.34 C134.11,55.71 133.78,54.84 133.64,54.45 C133.29,53.51 132.3,53.36 131.09,53.45 C128.339984,53.8161341 125.685519,54.7054819 123.27,56.07 C116.73,59.57 113.46,66.34 112.02,69.97 C111.549466,71.3274807 110.875079,72.6054454 110.02,73.76 C108.591963,75.4101733 107.02268,76.9326121 105.33,78.31 C105.045716,78.5608215 104.967518,78.972393 105.14,79.31 C105.626847,80.1911731 106.240008,80.9963686 106.96,81.7 C107.305609,81.8085949 107.682743,81.7331681 107.96,81.5 C109.660567,80.3295277 111.206179,78.9485576 112.56,77.39 C112.9,76.98 113.25,77.15 113.43,77.78 C114.306072,81.0614637 116.763892,83.6881419 119.98,84.78 C125.98,86.78 132.19,83.88 136.88,78.78 C138.733983,76.6151264 140.447486,74.3337954 142.01,71.95 C143.95,69.55 147.77,64.18 152.32,60.73 C153.99,59.46 155.96,58.49 156.96,59.13 C157.76,59.65 158.01,60.85 156.74,63.13 C152.1,71.6 145.27,81.56 144.02,83.97 C143.79,84.39 144.02,84.72 144.43,84.72 L151.43,84.72 C151.727984,84.7097359 151.998196,84.5422806 152.14,84.28 C155.7,78.71 159.05,73.4 162.64,67.92 C162.84,67.6 163.03,67.85 163.03,67.99 C163.070341,69.4481052 163.461373,70.8750309 164.17,72.15 C165.31476,74.0425481 167.378439,75.1848062 169.59,75.15 C171.103341,75.1715274 172.602637,74.857324 173.98,74.23 C175.263906,73.7502859 176.477976,73.1012124 177.59,72.3 C178.13,71.93 178.22,72.55 178.21,72.65 C177.39,77.07 178.4,82.32 182.8,84.49 C188.06,87.08 193.8,83.44 197.17,80.15 C197.49,79.83 197.84,79.87 197.88,80.55 C197.977865,81.9713439 198.572572,83.3129743 199.56,84.34 C202.35,87.14 207.97,86.03 213.62,81.66 C217.623725,78.4187287 221.261912,74.7503628 224.47,70.72 C224.659389,70.5289871 224.659389,70.2210129 224.47,70.03 C223.95,69.48 223.19,68.86 222.68,68.38 C222.448889,68.2066667 222.131111,68.2066667 221.9,68.38 C218.39,71.72 215.23,75.53 210.66,78.68 C209.12,79.76 206.66,80.62 205.56,79.13 C205.130006,78.3770663 205.130006,77.4529337 205.56,76.7 C206.94,73.47 228.01,41.36 229.13,39.46 Z M201.25,66.39 C201.25,66.64 201.61,66.87 201.93,66.99 C202.04,66.99 202.1,67.11 201.93,67.37 C201.121365,69.0181419 200.1676,70.5910177 199.08,72.07 C198.081124,73.5453237 196.863902,74.860328 195.47,75.97 C193.34,77.73 190.39,79.65 187.95,78.36 C186.892379,77.6033457 186.311121,76.3458521 186.42,75.05 C186.48,71.59 188.01,68.05 190.85,64.56 C194.31,60.3 198.14,58.09 200.65,59.3 C203.16,60.51 202.42,63.55 201.26,65.91 C201.195534,66.0628611 201.191956,66.2345866 201.25,66.39 Z" id="Shape" fill="#FFFFFF"></path>
                <path d="M76.14,84.67 C68.28,84.73 61.35,79.87 60.55,71.45 C60.0901168,67.0693485 61.3484814,62.6812054 64.06,59.21 C66.4839984,56.1126404 69.8853513,53.9273152 73.71,53.01 C74.8,52.81 76.27,52.94 76.87,53.66 C77.87,54.77 77.55,55.98 76.6,56.47 C74.01,57.77 71.01,60.01 69.46,63.06 C68.0294998,65.7044929 68.1835511,68.9241649 69.86,71.42 C73.02,76.19 81.86,76.32 90.01,68.72 C92.0125645,66.9073363 93.9090397,64.9808114 95.69,62.95 C99.1357094,59.0583354 102.341624,54.9607761 105.29,50.68 C105.32736,50.6078848 105.32736,50.5221152 105.29,50.45 C105.29,50.37 105.18,50.34 105.04,50.33 C101.884665,50.387525 98.832648,51.464501 96.34,53.4 C95.989054,53.6882278 95.5368744,53.823084 95.0853813,53.7741723 C94.6338883,53.7252605 94.2210791,53.4966972 93.94,53.14 C93.4530318,52.2215577 93.7854807,51.0823662 94.69,50.57 C99.05,47.57 103.81,46.99 108.69,46.17 C108.940504,46.1583513 109.170599,46.0284592 109.31,45.82 C111.31,43.26 112.82,40.95 114.94,38.35 C117.071758,35.8663256 119.413771,33.5711527 121.94,31.49 C123.998577,29.7231524 126.277579,28.2307085 128.72,27.05 C129.23,26.79 128.65,26.47 128.5,26.47 C117.75,24.47 106.57,21.83 95.89,25.79 C88.5,28.55 85.25,34.42 86.81,38.33 C87.92,41.11 91.58,41.56 95,39.89 C97.9901863,38.4142119 100.526181,36.1580751 102.34,33.36 C103.34,31.76 105.58,32.91 104.4,35.7 C101.28,43.05 95.3,48.87 88.03,49.12 C81.84,49.32 77.85,44.77 77.86,39.12 C77.86,28.04 90.22,20.74 103.18,19.65 C118.79,18.36 133.57,22.52 149.07,24.4 C160.94,25.84 172.33,25.87 184.27,23.13 C184.863768,22.9463113 185.510291,23.0819424 185.980177,23.4887704 C186.450064,23.8955984 186.676823,24.5160558 186.58,25.13 C186.46,27.19 184.87,29.13 180.94,31.32 C176.622826,33.5676535 171.80569,34.6824764 166.94,34.56 C155.13,34.66 144.13,30.05 132.74,27.56 C132.74,28.06 132.88,28.65 132.47,28.97 C126.16,33.62 120.47,38.35 116.64,44.97 C116.51,45.12 116.58,45.27 116.8,45.25 C120.11,45.07 123.1,44.99 126.19,44.74 C126.73,44.74 126.75,44.56 126.7,44.16 C126.363891,41.6703792 127.263425,39.1733329 129.11,37.47 C131.17,35.62 133.75,35.41 135.46,36.74 C137.4,38.25 137.23,40.98 136.17,43.02 C135.209321,44.8284272 133.556975,46.170507 131.59,46.74 C131.59,46.74 131.23,46.82 131.28,47.15 C131.35,47.67 133.68,48.97 133.88,49.31 C134.062324,49.7337123 133.958197,50.2263165 133.62,50.54 C133.341805,50.8783539 132.928019,51.0760926 132.49,51.08 C132.072829,51.0458049 131.672362,50.9008082 131.33,50.66 C130.098247,50.0059284 129.00211,49.123589 128.1,48.06 C127.8,47.69 127.65,47.68 126.91,47.72 C123.56,47.91 118.34,48.42 114.8,48.86 C113.94,48.97 113.8,49.13 113.64,49.42 C108,58.72 101.98,68.75 95.36,75.42 C88.3,82.72 82.4,84.62 76.14,84.67 Z M129.9,43.34 C129.99,43.82 130.18,43.91 130.39,43.87 C131.597803,43.5442835 132.646154,42.7908919 133.34,41.75 C133.98,40.82 134.27,39.48 133.64,38.94 C132.959009,38.4847666 132.048365,38.5906554 131.49,39.19 C130.310055,40.2278734 129.715612,41.7794061 129.9,43.34 Z" id="Shape" fill="#FFFFFF"></path>
                <path d="M144.53,104.25 C68.32,104.25 6.53,82.19 6.53,54.97 C6.53,27.75 68.31,5.69 144.53,5.69 C220.75,5.69 282.53,27.75 282.53,54.97 C282.53,82.19 220.73,104.25 144.53,104.25 Z M144.53,9.78 C71.01,9.78 11.38,30.1 11.38,54.95 C11.38,79.8 71.01,100.16 144.53,100.16 C218.05,100.16 277.66,79.83 277.66,54.95 C277.66,30.07 218.01,9.78 144.53,9.78 Z" id="Shape" fill="#FFFFFF"></path>
            </g>
        </g>
    </g>
</svg>