<svg width="61" height="61" viewBox="0 0 61 61" fill="none" xmlns="http://www.w3.org/2000/svg">
<path fill-rule="evenodd" clip-rule="evenodd" d="M27.73 60H5.39001C2.89944 60.123 0.682454 58.4339 0.140014 56C0.0461748 55.5967 -0.000802744 55.184 1.38297e-05 54.77V15.06C-0.00542636 12.7334 1.59466 10.7105 3.86001 10.18C13.17 7.83999 22.46 5.45999 31.77 3.09999C35.59 2.09999 39.42 1.17999 43.24 0.189991C44.7376 -0.209941 46.336 0.107324 47.5673 1.04892C48.7986 1.99051 49.5236 3.44993 49.53 4.99999C49.53 6.77999 49.53 8.55999 49.53 10.35C49.53 10.78 49.65 10.89 50.07 10.87C52.6234 10.6984 54.9099 12.4422 55.42 14.95C55.4934 15.3726 55.5269 15.8011 55.52 16.23C55.52 20.13 55.52 24.04 55.52 27.94C55.52 28.46 55.66 28.55 56.14 28.54C57.25 28.54 58.36 28.54 59.47 28.54C60.58 28.54 61 28.93 61 30V40.85C61 41.85 60.56 42.33 59.54 42.34C58.35 42.34 57.17 42.34 55.99 42.34C55.6 42.34 55.52 42.44 55.52 42.82C55.52 46.82 55.52 50.76 55.52 54.74C55.604 57.1927 53.9192 59.3535 51.52 59.87C51.0201 59.9723 50.51 60.0159 50 60H27.73Z" fill="#464646"/>
<path fill-rule="evenodd" clip-rule="evenodd" d="M27.7408 57H5.7908C4.77532 57.0789 3.81092 56.5435 3.3408 55.64C3.14936 55.3051 3.04935 54.9257 3.0508 54.54V16.29C3.06176 15.1141 3.89706 14.1075 5.0508 13.88C5.33183 13.8351 5.61625 13.8151 5.9008 13.82H49.7008C50.9956 13.6794 52.1856 14.5449 52.4508 15.82C52.491 15.9972 52.5111 16.1783 52.5108 16.36C52.5108 20.2933 52.5108 24.22 52.5108 28.14C52.5108 28.53 52.4208 28.65 52.0208 28.64C50.1208 28.64 48.2308 28.64 46.3308 28.64C43.9535 28.5797 41.8627 30.2022 41.3308 32.52C41.2518 32.848 41.2049 33.1829 41.1908 33.52C41.1908 34.76 41.1908 36.01 41.1908 37.25C41.2038 38.5867 41.7516 39.8625 42.7117 40.7925C43.6718 41.7226 44.9644 42.2295 46.3008 42.2C48.2108 42.2 50.1208 42.2 52.0408 42.2C52.3708 42.2 52.4908 42.26 52.4908 42.63C52.4908 46.59 52.4908 50.55 52.4908 54.51C52.4898 55.8124 51.489 56.8958 50.1908 57C49.9708 57 49.7508 57 49.5308 57H27.7408Z" fill="#FEFEFE"/>
<path fill-rule="evenodd" clip-rule="evenodd" d="M12.1797 10.79L15.1797 10.02C24.5797 7.62001 33.9897 5.25001 43.3797 2.81001C44.1501 2.62484 44.9629 2.79139 45.5984 3.26462C46.2339 3.73785 46.6263 4.46887 46.6697 5.26001C46.6697 7.02001 46.6697 8.78001 46.6697 10.54C46.6697 10.81 46.5797 10.91 46.3197 10.88C46.2364 10.875 46.1529 10.875 46.0697 10.88H12.1997L12.1797 10.79Z" fill="#FEFEFE"/>
<path fill-rule="evenodd" clip-rule="evenodd" d="M52.1896 31.12H57.8296C58.1796 31.12 58.3096 31.12 58.3096 31.57C58.3096 34.13 58.3096 36.7 58.3096 39.26C58.3096 39.6 58.2496 39.71 57.8796 39.71C54.1596 39.71 50.4396 39.71 46.7196 39.71C46.0136 39.7452 45.326 39.4788 44.8281 38.9771C44.3302 38.4753 44.069 37.7857 44.1096 37.08V33.7C44.0812 33.0118 44.3415 32.3431 44.8275 31.8551C45.3136 31.3672 45.9813 31.1043 46.6696 31.13L52.1896 31.12Z" fill="#FEFEFE"/>
<path fill-rule="evenodd" clip-rule="evenodd" d="M48.0896 36.6C47.7496 36.6 47.3996 36.6 47.0896 36.6C46.7793 36.6053 46.4795 36.4872 46.2564 36.2715C46.0332 36.0558 45.9048 35.7603 45.8996 35.45C45.872 34.7905 46.3467 34.2166 46.9996 34.12C47.7644 34.045 48.5347 34.045 49.2996 34.12C49.9048 34.2028 50.3421 34.7407 50.2996 35.35C50.3376 35.9599 49.9037 36.498 49.2996 36.59C48.9096 36.59 48.5096 36.59 48.1196 36.59L48.0896 36.6Z" fill="#464646"/>
</svg>
