<svg width="21" height="30" viewBox="0 0 21 30" fill="none" xmlns="http://www.w3.org/2000/svg">
<path fill-rule="evenodd" clip-rule="evenodd" d="M0.581732 5.11655C1.32709 3.14906 2.9197 1.59541 4.94251 0.862453C5.7094 0.556956 6.4921 0.2903 7.28746 0.0635614C7.64862 -0.0523371 8.04399 -0.00831217 8.36876 0.183965C8.69353 0.376243 8.91489 0.697354 8.97417 1.06218C9.40613 3.0594 9.81753 4.89685 10.1878 6.83416C10.288 7.3871 9.9925 7.93631 9.46784 8.17231C9.16271 8.33876 8.84662 8.48554 8.52164 8.6117C6.9172 9.3307 4.73681 10.6089 4.90137 12.2467C5.01188 13.2556 5.24668 14.248 5.60074 15.2025C6.22299 17.0768 7.18422 18.8285 8.43936 20.3754C10.1259 21.9715 12.6681 22.3562 14.7748 21.334C15.0011 21.2342 15.2274 21.1143 15.4536 21.0345C16.0524 20.8099 16.7319 20.9972 17.1198 21.4938L20.5755 25.8677C20.9036 26.1692 21.0558 26.6093 20.9815 27.0419C20.9073 27.4745 20.6163 27.8429 20.2052 28.0248C19.0548 28.8598 17.7485 29.4702 16.3587 29.8223C13.7783 30.374 11.0855 29.6227 9.20044 27.825C7.32471 26.1938 5.77037 24.2447 4.61339 22.073C2.65036 18.8169 1.21429 15.2872 0.355465 11.6075C-0.18593 9.4649 -0.107632 7.21874 0.581732 5.11655Z" fill="#B0D6FA"/>
</svg>
