<svg width="15" height="20" viewBox="0 0 15 20" fill="none" xmlns="http://www.w3.org/2000/svg">
<rect y="17.6118" width="13.3176" height="1.21176" rx="0.51" fill="#8F8E8E"/>
<rect y="7.23529" width="3.76471" height="1.21176" rx="0.51" fill="#8F8E8E"/>
<path fill-rule="evenodd" clip-rule="evenodd" d="M1.17647 7.79999V18.2588C1.16407 18.57 0.911336 18.8175 0.6 18.8235V18.8235C0.445097 18.8299 0.294163 18.7736 0.181268 18.6673C0.0683725 18.5611 0.00303353 18.4138 0 18.2588V7.79999C0.00303353 7.64499 0.0683725 7.49774 0.181268 7.39149C0.294163 7.28523 0.445097 7.22893 0.6 7.23529V7.23529C0.911336 7.24127 1.16407 7.48885 1.17647 7.79999Z" fill="#8F8E8E"/>
<rect x="9.55273" y="7.23529" width="3.76471" height="1.21176" rx="0.51" fill="#8F8E8E"/>
<path fill-rule="evenodd" clip-rule="evenodd" d="M12.106 7.8V18.2588C12.1121 18.4149 12.18 18.5621 12.2948 18.668C12.4095 18.7739 12.5617 18.8299 12.7177 18.8235V18.8235C12.8726 18.8299 13.0236 18.7736 13.1365 18.6673C13.2493 18.5611 13.3147 18.4138 13.3177 18.2588V7.8C13.3147 7.64499 13.2493 7.49775 13.1365 7.39149C13.0236 7.28524 12.8726 7.22893 12.7177 7.23529V7.23529C12.5617 7.22893 12.4095 7.28487 12.2948 7.3908C12.18 7.49673 12.1121 7.64394 12.106 7.8Z" fill="#8F8E8E"/>
<path fill-rule="evenodd" clip-rule="evenodd" d="M7.0795 1.38571C7.25133 1.55754 7.25133 1.83613 7.0795 2.00797L3.69204 5.39542C3.52021 5.56725 3.24162 5.56725 3.06979 5.39542L2.95998 5.28561C2.78815 5.11378 2.78815 4.83519 2.95998 4.66336L6.34743 1.2759C6.51927 1.10407 6.79786 1.10407 6.96969 1.2759L7.0795 1.38571Z" fill="#8F8E8E"/>
<path fill-rule="evenodd" clip-rule="evenodd" d="M6.34561 1.26859C6.51744 1.09675 6.79603 1.09675 6.96787 1.26859L10.3553 4.65604C10.5272 4.82787 10.5272 5.10647 10.3553 5.2783L10.2455 5.38811C10.0737 5.55994 9.79509 5.55994 9.62326 5.38811L6.2358 2.00065C6.06397 1.82882 6.06397 1.55023 6.2358 1.3784L6.34561 1.26859Z" fill="#8F8E8E"/>
<path fill-rule="evenodd" clip-rule="evenodd" d="M6.68226 11.5294C6.35739 11.5294 6.09403 11.266 6.09403 10.9411L6.02344 2.47056C6.02337 2.15023 6.27964 1.88873 6.59991 1.88232V1.88232C6.92478 1.88232 7.18814 2.14569 7.18814 2.47056L7.25873 10.9411C7.25873 11.266 6.99537 11.5294 6.6705 11.5294H6.68226Z" fill="#8F8E8E"/>
</svg>
