<?xml version="1.0" standalone="no"?>
<!DOCTYPE svg PUBLIC "-//W3C//DTD SVG 20010904//EN"
 "http://www.w3.org/TR/2001/REC-SVG-20010904/DTD/svg10.dtd">
<svg version="1.0" xmlns="http://www.w3.org/2000/svg"
 width="512.000000pt" height="512.000000pt" viewBox="0 0 512.000000 512.000000"
 preserveAspectRatio="xMidYMid meet">
<metadata>
Created by potrace 1.15, written by Peter Selinger 2001-2017
</metadata>
<g transform="translate(0.000000,512.000000) scale(0.100000,-0.100000)"
fill="#ffffff" stroke="none">
<path d="M2463 5102 c-18 -9 -74 -54 -125 -98 -473 -411 -1061 -741 -1623
-909 -210 -63 -289 -138 -315 -296 -23 -146 -9 -707 26 -969 134 -1029 707
-1951 1569 -2526 183 -122 521 -304 565 -304 20 0 216 95 350 170 503 282 957
719 1272 1225 321 516 495 1068 538 1703 13 198 13 619 0 701 -26 158 -105
233 -315 296 -555 166 -1149 497 -1605 895 -58 50 -122 100 -142 111 -48 25
-149 25 -195 1z m184 -626 c272 -215 573 -406 888 -561 215 -105 340 -157 629
-260 l79 -28 -6 -276 c-6 -281 -21 -452 -58 -641 -173 -888 -741 -1677 -1526
-2119 l-93 -52 -92 52 c-786 442 -1354 1231 -1527 2119 -37 189 -52 360 -58
641 l-6 276 79 28 c278 99 407 152 609 250 314 153 627 350 900 564 49 39 92
71 95 71 3 0 42 -29 87 -64z"/>
</g>
</svg>
