<svg width="70" height="68" viewBox="0 0 70 68" fill="none" xmlns="http://www.w3.org/2000/svg">
<g opacity="0.5">
<path fill-rule="evenodd" clip-rule="evenodd" d="M4.73152 20.4574C9.85824 8.0745 21.9404 3.04694e-06 35.3426 0C53.6315 -4.15792e-06 68.4611 14.8196 68.4734 33.1085C68.4825 46.5107 60.4161 58.5983 48.0367 63.7334C35.6573 68.8684 21.4034 66.0394 11.9234 56.5658C2.44344 47.0922 -0.395192 32.8403 4.73152 20.4574ZM12.4882 39.766C24.0382 55.3819 48.9701 49.0149 52.701 33.9574C54.7393 34.1138 56.7427 33.3615 58.1744 31.9021C56.4376 32.1381 54.6698 31.9621 53.0137 31.3883C55.086 31.4015 56.9952 30.2663 57.9733 28.4394C56.2967 29.2389 54.3978 29.4438 52.5892 29.0202C52.5628 28.8794 52.5191 28.7385 52.4758 28.599C52.4091 28.3845 52.3435 28.1733 52.3435 27.9702C51.2959 23.5011 47.2824 20.3609 42.6924 20.4191L43.7424 20.0394C43.8089 20.0197 43.9003 19.9948 44.0097 19.9651C44.8939 19.7248 46.9574 19.1639 46.5797 18.4085C46.2306 17.7103 43.8714 18.614 42.6844 19.0687C42.4282 19.1669 42.2266 19.2441 42.1116 19.2798C42.1285 19.2731 42.1457 19.2663 42.1631 19.2595C43.0162 18.9231 44.3711 18.3889 44.5244 17.4255C43.1891 17.6188 41.9433 18.2106 40.9499 19.1234C41.3172 18.7525 41.5594 18.276 41.6424 17.7606C38.1797 19.9723 36.1467 24.4404 34.5158 28.7745C33.4903 27.7007 32.3257 26.7691 31.0531 26.0043C27.2885 24.0098 23.3834 22.2925 19.369 20.866C19.3532 23.3903 20.8616 25.675 23.1893 26.6521C22.2396 26.625 21.2911 26.7379 20.3744 26.9872C20.7765 28.9532 22.0499 30.6511 25.468 31.4553C24.308 31.4207 23.1849 31.8651 22.3627 32.684C23.43 34.7274 25.7012 35.8404 27.9701 35.4319C24.4627 36.9511 26.5403 39.7213 29.3775 39.3191C24.8092 44.0435 17.2999 44.2422 12.4882 39.766Z" fill="#6DB6FB"/>
</g>
</svg>
