<svg width="70" height="68" viewBox="0 0 70 68" fill="none" xmlns="http://www.w3.org/2000/svg">
<g opacity="0.5">
<path fill-rule="evenodd" clip-rule="evenodd" d="M47.8084 31.2764H42.268C42.7848 33.3935 42.3078 35.6308 40.9722 37.353C39.6761 39.1223 37.6249 40.181 35.4318 40.2125C33.5481 40.279 31.7234 39.5491 30.4052 38.2019C28.5373 36.4239 27.7916 33.7666 28.4616 31.2764H22.8765V43.3402C22.7522 43.9626 22.9471 44.606 23.3959 45.0548C23.8447 45.5036 24.4881 45.6985 25.1105 45.5742H45.7307C47.2275 45.5742 47.9648 44.904 47.9648 43.3402V31.9689C47.8307 31.7679 47.8084 31.5891 47.8084 31.2764Z" fill="#6DB6FB"/>
<path fill-rule="evenodd" clip-rule="evenodd" d="M38.9395 33.0641C38.9027 31.0991 37.2864 29.5325 35.3212 29.5569C33.356 29.5814 31.7792 31.1878 31.7913 33.153C31.8033 35.1183 33.3997 36.7052 35.365 36.7056C37.3399 36.6458 38.9165 35.0397 38.9395 33.0641Z" fill="#6DB6FB"/>
<path fill-rule="evenodd" clip-rule="evenodd" d="M4.73152 20.4574C9.85824 8.0745 21.9404 3.04694e-06 35.3426 0C53.6315 -4.15792e-06 68.4611 14.8196 68.4734 33.1085C68.4825 46.5107 60.4161 58.5983 48.0367 63.7334C35.6573 68.8684 21.4034 66.0394 11.9234 56.5658C2.44344 47.0922 -0.395192 32.8403 4.73152 20.4574ZM47.9203 48.7692C50.1089 48.0039 51.523 45.8781 51.3831 43.5638V33.1755V22.7425C51.4964 21.2195 50.9438 19.7221 49.8681 18.6379C48.7925 17.5536 47.2995 16.9891 45.7756 17.0904H24.9097C23.412 16.9986 21.9466 17.5519 20.8835 18.6108C19.8203 19.6697 19.2611 21.1328 19.3469 22.6308V43.5638C19.2683 45.0599 19.8299 46.5187 20.8914 47.5759C21.9528 48.6331 23.4139 49.1888 24.9097 49.1043H45.6862C46.4452 49.1301 47.2024 49.0165 47.9203 48.7692Z" fill="#6DB6FB"/>
<path fill-rule="evenodd" clip-rule="evenodd" d="M24.5745 20.6426H45.5521C47.2053 20.6426 47.8308 21.2905 47.8308 22.9436V27.6798H47.317H40.4808C40.2056 27.6734 39.9395 27.5795 39.7213 27.4117C37.1569 25.4489 33.5952 25.4489 31.0308 27.4117C30.8352 27.5772 30.5934 27.6786 30.3383 27.7022H23.2564H22.8989V22.2287C22.9572 21.3435 23.6873 20.6523 24.5745 20.6426ZM42.782 26.0043H45.9767L45.9991 22.4968H42.4916V25.6692C42.4916 25.7809 42.782 26.0043 42.782 26.0043Z" fill="#6DB6FB"/>
</g>
</svg>
