<svg width="70" height="68" viewBox="0 0 70 68" fill="none" xmlns="http://www.w3.org/2000/svg">
<g opacity="0.5">
<path fill-rule="evenodd" clip-rule="evenodd" d="M4.73152 20.4574C9.85824 8.0745 21.9404 3.04694e-06 35.3426 0C53.6315 -4.15792e-06 68.4611 14.8196 68.4734 33.1085C68.4825 46.5107 60.4161 58.5983 48.0367 63.7334C35.6573 68.8684 21.4034 66.0394 11.9234 56.5658C2.44344 47.0922 -0.395192 32.8403 4.73152 20.4574ZM40.213 20.2404H44.6811V13.2926H38.5151C30.0651 13.2926 30.0883 19.7064 30.0926 20.9102C30.0927 20.9349 30.0928 20.9574 30.0928 20.9777V26.4064H26.0939V33.1085H30.0928V52.9468H38.3141V33.0192H43.9215C43.9215 33.0192 44.4354 29.8245 44.6811 26.317H38.4258V21.8489C38.586 20.9685 39.3206 20.3073 40.213 20.2404Z" fill="#6DB6FB"/>
</g>
</svg>
