<?xml version="1.0" encoding="utf-8"?>
<!-- Generator: Adobe Illustrator 18.1.1, SVG Export Plug-In . SVG Version: 6.00 Build 0)  -->
<svg version="1.1" id="Layer_1" xmlns="http://www.w3.org/2000/svg" xmlns:xlink="http://www.w3.org/1999/xlink" x="0px" y="0px"
	 width="538.2px" height="168.1px" viewBox="36.9 22.6 538.2 168.1" enable-background="new 36.9 22.6 538.2 168.1"
	 xml:space="preserve">
<g>
	<path fill="#0D88CA" d="M36.9,190.2c0-0.2,0-0.6,0-0.8c5.1-7.6,12.7-13.1,19.8-19c7.1-5.8,13.8-12.1,21.1-17.7
		c10.7-8.3,21-17.5,30.4-27.8c4.4-4.8,8.8-8.5,10.8-15.2c4.5-0.7,9.3-1.3,13.9-1.9c5.8,12.4,14.3,22,22.4,32.1c0,0.7,0,1.4,0,2.1
		c-0.5,2.3-1.4,4.4-3.1,5.7c-1.7,1.2-5.3,2.3-8,1.3c-1.4-0.6-3.5-3.8-4.6-5.3c-4.3-5.4-9.6-12.3-12.6-17.3
		c-11.6,13.3-24.9,26-39.6,37.5c-12.7,10-26.8,18.1-42.9,24.9C42.2,189.6,38,191.8,36.9,190.2z"/>
	<path fill="#0D88CA" d="M143.5,52.2h4.1c3.4-3.4,10.1-9.6,15.3-13c-0.9-0.2-2-0.3-3-0.3h-26.3C138.8,41.4,142.6,46.4,143.5,52.2z"
		/>
	<path fill="#0D88CA" d="M119.9,139.6h12.3c-1.3-1.6-2.5-3.1-3.7-4.6c-0.7-0.8-1.3-1.6-1.9-2.5L119.9,139.6z"/>
	<path fill="#0D88CA" d="M149.9,126.2h10.8V80.1c4.2-4.4,9.3-7.5,13.3-9.5v54.8c0,7.8-6.3,14-14,14h-0.1L149.9,126.2z"/>
	<path fill="#0D88CA" d="M100.6,126.2H86.7v-74h21.6c0.9-5.8,4.8-10.8,10-13.3H87.4c-7.8,0-14,6.3-14,14v72.5c0,7.8,6.3,14,14,14
		h0.2L100.6,126.2z"/>
</g>
<g>
	<path fill="#9DB33B" d="M214.6,23.2c0,0.2,0,0.6,0,0.8c-5.1,7.6-12.7,13.1-19.8,19c-7.1,5.8-13.8,12.1-21.1,17.7
		c-10.7,8.3-21,17.5-30.4,27.8c-4.4,4.8-8.8,8.5-10.8,15.2c-4.5,0.7-9.3,1.3-13.9,1.9c-5.8-12.4-14.3-22-22.4-32.1
		c0-0.7,0-1.4,0-2.1c0.5-2.3,1.4-4.4,3.1-5.7c1.7-1.2,5.3-2.3,8-1.3c1.4,0.6,3.5,3.8,4.6,5.3c4.3,5.4,9.6,12.3,12.6,17.3
		c11.6-13.3,24.9-26,39.6-37.5c12.7-10,26.8-18.1,42.9-24.9C209.2,23.8,213.5,21.6,214.6,23.2z"/>
	<circle fill="#9DB33B" cx="125.9" cy="55.1" r="14.6"/>
</g>
<g>
	<path fill="#0D88CA" d="M190.5,101.1l11.9-1.2c0.7,4.1,2.2,7,4.4,8.8c2.2,1.9,5.2,2.8,8.9,2.8c3.9,0,7-0.8,8.9-2.5
		c2-1.6,3-3.6,3-5.9c0-1.4-0.5-2.7-1.3-3.7s-2.3-1.9-4.4-2.7c-1.4-0.5-4.8-1.4-9.8-2.7c-6.6-1.6-11.2-3.6-13.9-6
		c-3.7-3.4-5.6-7.4-5.6-12.3c0-3.1,0.9-6,2.7-8.7s4.3-4.8,7.6-6.1c3.4-1.4,7.3-2.1,11.9-2.1c7.6,0,13.3,1.6,17.3,5
		c3.8,3.4,5.9,7.8,6,13.4l-12.3,0.6c-0.6-3.1-1.6-5.3-3.4-6.7c-1.7-1.4-4.3-2.1-7.8-2.1c-3.6,0-6.4,0.7-8.3,2.2
		c-1.3,0.9-2,2.2-2,3.8c0,1.4,0.6,2.7,1.9,3.7c1.5,1.3,5.3,2.7,11.2,4.1c6,1.4,10.4,2.9,13.2,4.4c2.9,1.5,5.1,3.6,6.7,6.1
		c1.6,2.7,2.4,5.8,2.4,9.7c0,3.5-0.9,6.7-2.9,9.7s-4.6,5.3-8.2,6.8c-3.6,1.5-8,2.2-13.2,2.2c-7.6,0-13.6-1.7-17.7-5.3
		C193.7,113,191.1,107.9,190.5,101.1z"/>
	<path fill="#0D88CA" d="M273.9,120.9v-6.6c-1.6,2.3-3.7,4.2-6.4,5.6c-2.7,1.4-5.3,2.1-8.2,2.1c-3,0-5.6-0.7-8-2
		c-2.3-1.3-4.1-3.1-5.1-5.4s-1.6-5.6-1.6-9.7v-28h11.7v20.3c0,6.1,0.2,10,0.7,11.4s1.2,2.5,2.3,3.4c1.2,0.8,2.5,1.3,4.3,1.3
		c2,0,3.8-0.6,5.3-1.6c1.6-1,2.7-2.4,3.2-4.1c0.6-1.6,0.9-5.6,0.9-11.9V77h11.7v44h-10.9v-0.1H273.9z"/>
	<path fill="#0D88CA" d="M301.8,120.9h-11.7v-44h10.8v6.3c1.9-3,3.5-4.9,5-5.8s3.1-1.4,5-1.4c2.7,0,5.2,0.7,7.6,2.2l-3.6,10.2
		c-2-1.3-3.8-1.9-5.4-1.9s-3,0.5-4.2,1.4s-2,2.5-2.7,4.9c-0.7,2.3-0.9,7.3-0.9,14.7L301.8,120.9L301.8,120.9z"/>
	<path fill="#0D88CA" d="M345.2,106.9l11.6,2c-1.5,4.3-3.8,7.5-7.1,9.7s-7.3,3.4-12.1,3.4c-7.6,0-13.3-2.5-17-7.5
		c-2.9-4.1-4.4-9-4.4-15.2c0-7.3,1.9-13,5.7-17.2c3.8-4.2,8.7-6.3,14.5-6.3c6.6,0,11.7,2.2,15.5,6.5s5.6,11,5.4,19.9h-29.2
		c0.1,3.5,1,6.1,2.8,8.1c1.9,2,4.1,2.9,6.7,2.9c1.9,0,3.4-0.5,4.6-1.5C343.5,110.7,344.5,109.1,345.2,106.9z M345.7,95.1
		c-0.1-3.4-0.9-5.9-2.7-7.6c-1.6-1.7-3.7-2.7-6-2.7c-2.5,0-4.6,0.9-6.3,2.8c-1.6,1.9-2.4,4.4-2.4,7.5
		C328.3,95.1,345.7,95.1,345.7,95.1z"/>
</g>
<g>
	<path fill="#9DB33B" d="M405.9,98.5l11.9,3.8c-1.9,6.6-4.9,11.6-9.2,14.8c-4.3,3.2-9.6,4.9-16.1,4.9c-8.1,0-14.7-2.8-19.9-8.2
		c-5.2-5.6-7.8-13.1-7.8-22.6c0-10.1,2.7-18,7.9-23.5s12.1-8.3,20.6-8.3c7.4,0,13.4,2.2,18.1,6.6c2.8,2.5,4.9,6.4,6.3,11.2
		l-12.2,2.9c-0.7-3.1-2.2-5.7-4.5-7.4c-2.3-1.9-5.1-2.8-8.3-2.8c-4.5,0-8.1,1.6-11,4.9c-2.8,3.2-4.2,8.5-4.2,15.8
		c0,7.6,1.4,13.2,4.2,16.5c2.8,3.2,6.4,4.9,10.8,4.9c3.2,0,6-1,8.5-3.1C403.1,106.2,404.8,103,405.9,98.5z"/>
	<path fill="#9DB33B" d="M434.3,120.9h-11.7v-44h10.8v6.3c1.9-3,3.5-4.9,5-5.8s3.1-1.4,5-1.4c2.7,0,5.2,0.7,7.6,2.2l-3.6,10.2
		c-2-1.3-3.8-1.9-5.4-1.9s-3,0.5-4.2,1.4s-2,2.5-2.7,4.9c-0.7,2.3-0.9,7.3-0.9,14.7L434.3,120.9L434.3,120.9z"/>
	<path fill="#9DB33B" d="M454.1,70.9V60.1h11.7v10.8H454.1z M454.1,120.9v-44h11.7v44H454.1z"/>
	<path fill="#9DB33B" d="M494.7,76.9v9.3h-8v17.7c0,3.6,0.1,5.7,0.2,6.3c0.1,0.6,0.5,1,1,1.5c0.6,0.3,1.2,0.6,2,0.6
		c1,0,2.7-0.3,4.6-1.2l1,9c-2.7,1.2-5.8,1.7-9.2,1.7c-2.1,0-3.9-0.3-5.7-1c-1.7-0.7-2.9-1.6-3.7-2.8c-0.8-1.2-1.4-2.7-1.6-4.5
		c-0.2-1.4-0.3-4.1-0.3-8.2V86h-5.3v-9.3h5.3V68l11.7-6.8v15.5C486.8,76.9,494.7,76.9,494.7,76.9z"/>
	<path fill="#9DB33B" d="M499.7,70.9V60.1h11.7v10.8H499.7z M499.7,120.9v-44h11.7v44H499.7z"/>
	<path fill="#9DB33B" d="M557.7,89.9L546.2,92c-0.3-2.3-1.3-4.1-2.7-5.2c-1.4-1.2-3.1-1.7-5.3-1.7c-2.9,0-5.2,1-7,3
		c-1.7,2-2.5,5.3-2.5,10.1c0,5.2,0.9,8.9,2.7,11.1c1.7,2.2,4.1,3.2,7.1,3.2c2.2,0,4.1-0.6,5.4-1.9c1.4-1.3,2.4-3.5,3-6.5l11.5,2
		c-1.2,5.2-3.5,9.3-6.8,11.9c-3.4,2.7-7.9,4.1-13.6,4.1c-6.5,0-11.6-2.1-15.4-6.1s-5.8-9.7-5.8-16.9c0-7.3,2-13,5.8-17s9-6,15.6-6
		c5.3,0,9.6,1.2,12.7,3.5C554,81.6,556.3,85.1,557.7,89.9z"/>
</g>
<g>
	<path fill="#56565A" d="M568.3,75.7v0.9h-1.7v4.5h-1v-4.5h-1.7v-0.9H568.3z M574.2,81.2L574,78c0-0.5,0-0.9,0-1.5h-0.1
		c-0.1,0.5-0.3,1.2-0.5,1.6l-1,3h-1.2l-1-3.1c-0.1-0.5-0.2-1-0.3-1.5h-0.1c0,0.5,0,1,0,1.5l-0.2,3.2h-1l0.3-5.4h1.6l0.9,2.7
		c0.1,0.5,0.2,0.8,0.3,1.4l0,0c0.1-0.5,0.2-0.9,0.3-1.4l0.9-2.7h1.6l0.5,5.4C575.3,81.2,574.2,81.2,574.2,81.2z"/>
</g>
</svg>
