<svg width="26" height="16" viewBox="0 0 26 16" fill="none" xmlns="http://www.w3.org/2000/svg">
<path fill-rule="evenodd" clip-rule="evenodd" d="M8.7499 5.87L9.1399 10.57L8.2899 10.64L5.8099 8L6.0499 10.85L5.0499 10.94L4.6499 6.24L5.5099 6.16L7.9999 8.81L7.7199 6L8.7499 5.87Z" fill="#6DB6FB"/>
<path fill-rule="evenodd" clip-rule="evenodd" d="M13.2802 9.33999L13.3502 10.21L9.88023 10.51L9.49023 5.80999L12.8702 5.51999L12.9502 6.38999L10.5902 6.58999L10.6802 7.58999L12.7602 7.41999L12.8302 8.25999L10.7502 8.43999L10.8402 9.52999L13.2802 9.33999Z" fill="#6DB6FB"/>
<path fill-rule="evenodd" clip-rule="evenodd" d="M20.2398 4.89999L19.1698 9.71999L18.0498 9.81999L16.7998 6.71999L16.0498 9.99999L14.9398 10.09L13.0698 5.49999L14.1498 5.40999L15.4398 8.62999L16.2198 5.23999L17.2198 5.15999L18.5198 8.39999L19.2498 4.99999L20.2398 4.89999Z" fill="#6DB6FB"/>
<path fill-rule="evenodd" clip-rule="evenodd" d="M22 12.56C21.7036 13.0922 21.1809 13.4603 20.58 13.56L3.56997 15C3.02444 15.0404 2.54771 14.6349 2.49997 14.09L1.74997 3.27001C1.72794 3.00299 1.81399 2.73829 1.98882 2.53526C2.16365 2.33224 2.41264 2.20786 2.67997 2.19001L19.68 0.750009C20.2886 0.744911 20.8665 1.01728 21.25 1.49001L24.25 5.70001C24.5758 6.21512 24.6318 6.85626 24.4 7.42001L22 12.56Z" stroke="#6DB6FB" stroke-width="1.5"/>
</svg>
