<svg width="18" height="20" viewBox="0 0 18 20" fill="none" xmlns="http://www.w3.org/2000/svg">
<path fill-rule="evenodd" clip-rule="evenodd" d="M15.2998 6.19444C16.1821 7.28797 16.7419 8.60584 16.9165 10C17.3051 12.4571 16.571 14.959 14.9165 16.8167C13.4859 18.505 11.4395 19.5512 9.23316 19.7222C4.69342 20.1062 0.656394 16.8472 0.0744493 12.3285C-0.507495 7.80991 2.57205 3.63436 7.06094 2.85556L7.31094 2.82222C7.48168 2.79423 7.54383 2.81137 7.56348 2.78979C7.58282 2.76855 7.56094 2.70975 7.56094 2.53333C7.56094 2.47736 7.57034 2.41449 7.57967 2.3521C7.59811 2.22871 7.61629 2.10717 7.56094 2.04444C7.44977 1.93683 7.29876 1.88046 7.14427 1.88889C6.98512 1.89733 6.82564 1.89733 6.66649 1.88889C6.23283 1.81318 5.9261 1.42258 5.95538 0.983333C5.99427 0.555556 6.38316 0 6.83316 0H8.54983H10.1776C10.7025 0.0686041 11.0882 0.526617 11.0665 1.05556C11.0667 1.29231 10.9701 1.51885 10.7991 1.68255C10.628 1.84625 10.3975 1.93285 10.1609 1.92222C10.0259 1.93055 9.89044 1.93055 9.75538 1.92222C9.58316 1.91111 9.58316 1.96667 9.58316 2.10556C9.59363 2.29059 9.59363 2.47607 9.58316 2.66111C9.57761 2.77778 9.62761 2.82778 9.74427 2.82778C11.1295 2.94458 12.4422 3.49689 13.4943 4.40556C13.6221 4.51111 13.7998 4.60556 13.8887 4.51111L14.9332 3.40556C15.3291 3.06451 15.915 3.06451 16.3109 3.40556C16.694 3.77639 16.7255 4.38018 16.3832 4.78889C16.0276 5.18333 15.6665 5.54444 15.2998 5.9C15.1998 6.00556 15.2054 6.07222 15.2998 6.19444ZM2.33802 13.7948C3.36824 16.2893 5.80089 17.9166 8.49983 17.9167C12.1709 17.9167 15.1512 14.9488 15.1665 11.2778C15.1777 8.57886 13.5606 6.13944 11.0704 5.09881C8.58011 4.05818 5.70811 4.62167 3.79569 6.52612C1.88327 8.43057 1.30779 11.3002 2.33802 13.7948Z" fill="#6DB6FB"/>
<path fill-rule="evenodd" clip-rule="evenodd" d="M7.42226 9.64446V7.85557C7.39824 7.5814 7.53093 7.31714 7.76517 7.17264C7.9994 7.02815 8.29511 7.02815 8.52935 7.17264C8.76359 7.31714 8.89628 7.5814 8.87226 7.85557C8.87226 8.77224 8.87226 9.68891 8.87226 10.6056C8.87226 10.7389 8.90559 10.7834 9.04448 10.7778C9.4667 10.7778 9.88893 10.7778 10.3111 10.7778C10.6195 10.7632 10.9031 10.9463 11.0167 11.2334C11.1261 11.4857 11.0736 11.7791 10.8834 11.9778C10.746 12.1409 10.5409 12.2311 10.3278 12.2222C9.60559 12.2222 8.88337 12.2222 8.16115 12.2222C7.95297 12.2299 7.75174 12.1467 7.60986 11.9941C7.46799 11.8416 7.39951 11.6349 7.42226 11.4278V9.64446Z" fill="#6DB6FB" stroke="#6DB6FB"/>
</svg>
