<svg width="15" height="15" viewBox="0 0 15 15" fill="none" xmlns="http://www.w3.org/2000/svg">
<path fill-rule="evenodd" clip-rule="evenodd" d="M7.62145 6.4286H8.33574C8.4336 6.42862 8.52736 6.38926 8.59589 6.31939C8.66441 6.24952 8.70194 6.15501 8.70002 6.05717V3.91431C8.67417 3.45093 8.84899 2.99884 9.17988 2.67342C9.51077 2.348 9.96571 2.18073 10.4286 2.21431C10.8859 2.18769 11.3331 2.35572 11.6597 2.67688C11.9863 2.99804 12.1618 3.44236 12.1429 3.90003V6.04288C12.141 6.1395 12.1775 6.23292 12.2445 6.30258C12.3115 6.37224 12.4034 6.41244 12.5 6.41431H13.2143C13.3109 6.41244 13.4028 6.37224 13.4698 6.30258C13.5368 6.23292 13.5734 6.1395 13.5715 6.04288V3.90003C13.5929 3.0562 13.27 2.23998 12.6772 1.63908C12.0844 1.03819 11.2726 0.704338 10.4286 0.714312C9.58154 0.696465 8.76408 1.02609 8.16633 1.62654C7.56859 2.22698 7.24265 3.04591 7.26431 3.89288V6.03574C7.25641 6.13597 7.29029 6.23501 7.35792 6.30941C7.42555 6.3838 7.52093 6.42694 7.62145 6.4286Z" fill="white"/>
<rect y="6.1214" width="10.7143" height="2.48571" rx="1" fill="white"/>
<rect y="9.31427" width="10.7143" height="2.48571" rx="1" fill="white"/>
<rect y="12.5143" width="10.7143" height="2.48571" rx="1" fill="white"/>
</svg>
